# Blender 4.5.3 LTS
# www.blender.org
mtllib Road6_End.mtl
g Road6_End_Mesh
v -4.903905 0.000000 -5.999997
v 6.000002 0.000000 5.999996
v 6.000002 0.199999 5.999996
v 5.999995 0.000000 -6.000004
v 5.999995 0.199999 -6.000004
v 4.903917 0.000000 -6.000003
v 4.903917 0.199999 -6.000003
v 4.903924 0.000000 5.999997
v 4.903924 0.199999 5.999997
v 5.250238 0.199999 -6.000003
v 5.250246 0.000000 5.999997
v 5.250238 0.000000 -6.000003
v 5.250246 0.199999 5.999997
v 5.250238 0.410548 -6.000003
v 5.999995 0.410548 -6.000004
v 6.000002 0.410548 5.999996
v -4.903905 0.199999 -5.999997
v 5.250246 0.410548 5.999997
v 4.903924 0.410548 5.999997
v 4.903917 0.410548 -6.000003
v 2.942360 0.410548 5.999998
v 4.903917 0.475349 -6.000003
v 5.250238 0.475349 -6.000003
v -5.999998 0.000000 6.000004
v -5.999998 0.199999 6.000004
v -6.000005 0.000000 -5.999996
v -6.000005 0.199999 -5.999996
v -5.250227 0.000000 -5.999997
v -5.250220 0.199999 6.000003
v -5.250227 0.199999 -5.999997
v -5.250220 0.000000 6.000003
v -6.000005 0.410548 -5.999996
v -5.250220 0.410548 6.000003
v -5.250227 0.410548 -5.999997
v -4.903905 0.410548 -5.999997
v -5.250227 0.475349 -5.999997
v -4.903905 0.475349 -5.999997
v -4.903899 0.199999 6.000001
v -4.903899 0.000000 6.000001
v -5.999998 0.410548 6.000002
v 6.000000 0.000000 1.857666
v 6.000000 0.199999 1.857666
v 4.903922 0.199999 1.857667
v 4.903922 0.000000 1.857667
v 5.250243 0.000000 1.857667
v 6.000000 0.410548 1.857666
v 4.903922 0.410548 1.857667
v 5.250243 0.410548 1.857667
v 4.903922 0.475349 1.857667
v 5.250243 0.475349 1.857667
v -6.000000 0.410548 1.857673
v -4.903901 0.475349 1.857672
v -4.903901 0.199999 1.857672
v -4.903901 0.000000 1.857672
v -6.000000 0.199999 1.857674
v -6.000000 0.000000 1.857674
v -5.250222 0.000000 1.857674
v -4.903900 0.410548 1.857672
v -5.250222 0.410548 1.857674
v -5.250222 0.475349 1.857672
v -2.942341 0.199999 -5.999998
v -0.980777 0.199999 -6.000000
v 0.980788 0.199999 -6.000000
v 2.942352 0.199999 -6.000002
v 2.942352 0.000000 -6.000002
v 0.980788 0.000000 -6.000000
v -0.980777 0.000000 -6.000000
v -2.942341 0.000000 -5.999998
v 2.942360 0.000000 5.999998
v 0.980795 0.000000 5.999999
v -0.980769 0.000000 5.999999
v -2.942334 0.000000 6.000000
v 2.942360 0.199999 5.999998
v 0.980795 0.199999 5.999999
v -0.980769 0.199999 5.999999
v -2.942334 0.199999 6.000000
v -2.942336 0.000000 1.857671
v -0.980772 0.000000 1.857670
v 0.980793 0.000000 1.857669
v 2.942357 0.000000 1.857668
v 2.942357 0.199999 1.857668
v 0.980793 0.199999 1.857669
v -0.980772 0.199999 1.857670
v -2.942336 0.199999 1.857671
v 6.000000 0.199999 2.758121
v 4.903923 0.000000 3.408167
v 5.250244 0.000000 2.758121
v 6.000000 0.410548 2.758121
v 5.250244 0.410548 2.758121
v 5.250244 0.475349 2.758121
v -4.903900 0.475349 3.408171
v -4.903900 0.000000 3.408171
v -6.000000 0.000000 2.758129
v -5.250222 0.000000 2.758128
v -5.250222 0.410548 2.758128
v -5.250222 0.475349 2.758126
v 6.000000 0.000000 2.758121
v -6.000000 0.410548 2.758127
v -6.000000 0.199999 2.758129
v 2.942359 0.000000 4.643887
v 0.980795 0.000000 5.138006
v -0.980770 0.000000 5.138007
v -2.942335 0.000000 4.643889
v 6.000000 0.000000 2.235216
v -6.000000 0.410548 2.235221
v -6.000000 0.199999 2.235223
v 2.942359 0.000000 4.120981
v 0.980794 0.000000 4.615101
v -0.980770 0.000000 4.615101
v -2.942335 0.000000 4.120984
v 6.000000 0.199999 2.235216
v 4.748434 0.199999 2.746750
v 4.748434 0.000000 2.746750
v 5.250243 0.000000 2.235216
v 6.000000 0.410548 2.235216
v 5.250243 0.410548 2.235216
v 5.250243 0.475349 2.235216
v -4.748411 0.199999 2.746754
v -4.748411 0.000000 2.746754
v -6.000000 0.000000 2.235223
v -5.250222 0.000000 2.235223
v -5.250222 0.410548 2.235223
v -5.250222 0.475349 2.235221
v 2.942359 0.199999 4.120981
v 0.980794 0.199999 4.615101
v -0.980770 0.199999 4.615102
v -2.942335 0.199999 4.120984
v 4.748434 0.410548 2.746750
v 4.903923 0.410548 3.408167
v -4.748411 0.410548 2.746754
v -4.903900 0.410548 3.408171
v 2.942359 0.410548 4.120981
v 2.942359 0.410548 4.643887
v 0.980794 0.410548 4.615101
v -0.980770 0.410548 4.615102
v -2.942335 0.410548 4.120984
v 4.748434 0.475349 2.746750
v 4.903923 0.475349 3.408167
v -4.748411 0.475349 2.746754
v 2.942359 0.475349 4.120981
v 2.942359 0.475349 4.643887
v 0.980794 0.475349 4.615101
v 0.980795 0.475349 5.138006
v -0.980770 0.475349 4.615102
v -0.980770 0.475349 5.138007
v -2.942335 0.475349 4.120984
v -2.942335 0.475349 4.643889
v -4.903899 0.410548 6.000001
v -2.942334 0.410548 6.000000
v 0.980795 0.410548 5.999999
v -0.980769 0.410548 5.999999
v 0.980795 0.410548 5.138006
v -0.980770 0.410548 5.138007
v -2.942335 0.410548 4.643889
vn -0.0000 -0.0000 -1.0000
vn 1.0000 -0.0000 -0.0000
vn -0.0000 -1.0000 -0.0000
vn -0.0000 -0.0000 1.0000
vn -0.0000 1.0000 -0.0000
vn -1.0000 -0.0000 -0.0000
vn 0.9850 -0.0000 -0.1723
vn 0.5330 -0.0000 0.8461
vn 0.8826 -0.0000 0.4702
vn -0.9850 -0.0000 -0.1723
vn 0.2443 -0.0000 -0.9697
vn -0.6055 -0.0000 -0.7958
vn -0.5330 -0.0000 0.8461
vn -0.2443 -0.0000 -0.9697
vn -0.2443 -0.0000 0.9697
vn 0.6055 -0.0000 -0.7958
vn 0.2443 -0.0000 0.9697
vn -0.8826 -0.0000 0.4702
vt 0.700073 0.258574
vt 0.512246 0.208471
vt 0.700073 0.208471
vt 0.966471 0.931826
vt 0.987815 0.988772
vt 0.987815 0.931826
vt 0.346984 0.077751
vt 0.364182 0.053048
vt 0.364182 0.077751
vt 0.592619 0.212747
vt 0.588439 0.210332
vt 0.592619 0.210332
vt 0.556109 0.305051
vt 0.553695 0.328730
vt 0.553695 0.305051
vt 0.605127 0.254945
vt 0.602712 0.263995
vt 0.602712 0.254945
vt 0.361159 0.083951
vt 0.353215 0.059248
vt 0.361159 0.059248
vt 0.483486 0.258893
vt 0.396179 0.208474
vt 0.483486 0.208474
vt 0.606893 0.210332
vt 0.597842 0.249468
vt 0.597842 0.210332
vt 0.588439 0.215289
vt 0.588439 0.212747
vt 0.966471 0.354227
vt 0.944001 0.769731
vt 0.966471 0.769731
vt 0.607668 0.263995
vt 0.605127 0.263995
vt 0.512246 0.311320
vt 0.512246 0.258574
vt 0.396179 0.311972
vt 0.396179 0.258893
vt 0.849882 0.354227
vt 0.842965 0.769731
vt 0.849882 0.769731
vt 0.483486 0.311972
vt 0.396179 0.328308
vt 0.116545 0.769731
vt 0.137889 0.354227
vt 0.137889 0.769731
vt 0.583372 0.290943
vt 0.585786 0.281892
vt 0.585786 0.290943
vt 0.227499 0.988772
vt 0.205026 0.573268
vt 0.227499 0.573268
vt 0.483487 0.258893
vt 0.302344 0.020569
vt 0.257349 0.031901
vt 0.257349 0.020569
vt 0.483487 0.208474
vt 0.512247 0.261218
vt 0.700073 0.311320
vt 0.512247 0.311320
vt 0.593140 0.252009
vt 0.597321 0.254424
vt 0.593140 0.254424
vt 0.700073 0.208474
vt 0.700073 0.261218
vt 0.205026 0.988772
vt 0.198110 0.573268
vt 0.580830 0.281892
vt 0.583372 0.281892
vt 0.597321 0.249468
vt 0.597321 0.252009
vt 0.483487 0.311972
vt 0.116545 0.931825
vt 0.094075 0.988772
vt 0.094075 0.931825
vt 0.597490 0.294080
vt 0.588439 0.254945
vt 0.597490 0.254945
vt 0.014059 0.077751
vt 0.031258 0.053048
vt 0.031258 0.077751
vt 0.602191 0.262792
vt 0.598011 0.294080
vt 0.598011 0.254945
vt 0.346288 0.988772
vt 0.242563 0.573268
vt 0.346288 0.573268
vt 0.302344 0.148066
vt 0.257349 0.328308
vt 0.257349 0.148066
vt 0.302344 0.092914
vt 0.257349 0.092914
vt 0.242563 0.446128
vt 0.346288 0.446128
vt 0.048938 0.328308
vt 0.056882 0.148066
vt 0.056882 0.328308
vt 0.014059 0.328308
vt 0.031258 0.148066
vt 0.031258 0.328308
vt 0.094075 0.354227
vt 0.014059 0.769731
vt 0.014059 0.354227
vt 0.116545 0.354227
vt 0.161145 0.988772
vt 0.198110 0.988772
vt 0.154229 0.573268
vt 0.154229 0.988772
vt 0.198110 0.446128
vt 0.205026 0.446128
vt 0.227499 0.446128
vt 0.116545 0.896871
vt 0.137889 0.896871
vt 0.200556 0.537102
vt 0.197751 0.546046
vt 0.196314 0.545294
vt 0.799084 0.769731
vt 0.806001 0.354227
vt 0.799084 0.354227
vt 0.842965 0.354227
vt 0.944001 0.896871
vt 0.966471 0.896871
vt 0.863988 0.354227
vt 0.944001 0.354227
vt 0.322211 0.328308
vt 0.330155 0.148066
vt 0.330155 0.328308
vt 0.776612 0.769731
vt 0.776612 0.354227
vt 0.364182 0.328308
vt 0.346984 0.148066
vt 0.364182 0.148066
vt 0.987815 0.769731
vt 0.987815 0.354227
vt 0.761189 0.446128
vt 0.657464 0.573268
vt 0.657464 0.446128
vt 0.553738 0.573268
vt 0.553738 0.446128
vt 0.450013 0.446128
vt 0.450013 0.573268
vt 0.077368 0.092914
vt 0.122363 0.148066
vt 0.077368 0.148066
vt 0.122363 0.092914
vt 0.167359 0.148066
vt 0.212354 0.092914
vt 0.167359 0.092914
vt 0.212354 0.148066
vt 0.077368 0.328308
vt 0.122363 0.328308
vt 0.167359 0.328308
vt 0.212354 0.328308
vt 0.761189 0.988772
vt 0.761189 0.573268
vt 0.657464 0.988772
vt 0.553739 0.988772
vt 0.122364 0.020569
vt 0.077368 0.031901
vt 0.077368 0.020569
vt 0.167359 0.020569
vt 0.122364 0.031901
vt 0.212354 0.020569
vt 0.167359 0.031901
vt 0.212354 0.031901
vt 0.556109 0.210332
vt 0.553695 0.234012
vt 0.553695 0.210332
vt 0.556109 0.234012
vt 0.553695 0.257692
vt 0.556109 0.257692
vt 0.553695 0.281371
vt 0.556109 0.281371
vt 0.556630 0.234012
vt 0.567036 0.257692
vt 0.556630 0.257692
vt 0.567036 0.281371
vt 0.556630 0.281371
vt 0.536426 0.249337
vt 0.581421 0.274040
vt 0.536426 0.274040
vt 0.580309 0.313180
vt 0.556630 0.296809
vt 0.580309 0.281892
vt 0.550632 0.257692
vt 0.553174 0.281371
vt 0.550632 0.281371
vt 0.180345 0.627116
vt 0.187261 0.572640
vt 0.181986 0.627235
vt 0.944001 0.988772
vt 0.966471 0.988772
vt 0.116545 0.988772
vt 0.137889 0.931826
vt 0.137889 0.988772
vt 0.550632 0.305050
vt 0.553174 0.328730
vt 0.550632 0.328730
vt 0.556630 0.210332
vt 0.573000 0.234012
vt 0.048938 0.092914
vt 0.056882 0.077751
vt 0.056882 0.092914
vt 0.014059 0.092914
vt 0.031258 0.092914
vt 0.014059 0.896871
vt 0.014059 0.931825
vt 0.094075 0.896870
vt 0.161145 0.411174
vt 0.198110 0.411174
vt 0.154229 0.446128
vt 0.161145 0.446128
vt 0.190497 0.556283
vt 0.185789 0.572359
vt 0.202713 0.564587
vt 0.191946 0.556864
vt 0.863988 0.931826
vt 0.944001 0.931826
vt 0.330155 0.092914
vt 0.322211 0.077751
vt 0.330155 0.077751
vt 0.588439 0.246576
vt 0.592619 0.215289
vt 0.592619 0.254424
vt 0.346984 0.092914
vt 0.364182 0.092914
vt 0.987815 0.896871
vt 0.209715 0.566138
vt 0.210973 0.542161
vt 0.216213 0.543677
vt 0.322211 0.092914
vt 0.863988 0.769731
vt 0.209344 0.541688
vt 0.201962 0.537831
vt 0.204373 0.564952
vt 0.161145 0.573268
vt 0.094075 0.769731
vt 0.048938 0.148066
vt 0.318692 0.127903
vt 0.333855 0.172898
vt 0.318692 0.172898
vt 0.333855 0.217894
vt 0.318692 0.217894
vt 0.318692 0.262889
vt 0.333855 0.262889
vt 0.318692 0.307884
vt 0.333855 0.307884
vt 0.204871 0.768479
vt 0.195746 0.721722
vt 0.200763 0.721437
vt 0.201100 0.623411
vt 0.318692 0.082908
vt 0.333855 0.127903
vt 0.185722 0.766265
vt 0.195792 0.818145
vt 0.194335 0.818386
vt 0.194439 0.673894
vt 0.194195 0.622804
vt 0.195764 0.622938
vt 0.180504 0.721319
vt 0.187170 0.766060
vt 0.192879 0.673896
vt 0.199635 0.673901
vt 0.518823 0.210332
vt 0.535194 0.234012
vt 0.518823 0.234012
vt 0.216213 0.819512
vt 0.200005 0.769228
vt 0.194222 0.721812
vt 0.182017 0.721195
vt 0.179871 0.675562
vt 0.198528 0.769459
vt 0.550632 0.210332
vt 0.553174 0.234012
vt 0.550632 0.234012
vt 0.178308 0.675568
vt 0.211474 0.820567
vt 0.529229 0.281371
vt 0.518823 0.305050
vt 0.518823 0.281371
vt 0.529229 0.257692
vt 0.518823 0.257692
vt 0.535194 0.305050
vt 0.518823 0.328730
vt 0.553174 0.305050
vt 0.593140 0.218180
vt 0.597321 0.210332
vt 0.553174 0.257692
vt 0.197072 0.834945
vt 0.198529 0.834704
vt 0.346984 0.053048
vt 0.556109 0.328730
vt 0.353215 0.083951
vt 0.606893 0.249468
vt 0.607668 0.254945
vt 0.700073 0.311320
vt 0.483486 0.328308
vt 0.302344 0.031901
vt 0.512247 0.208474
vt 0.580830 0.290943
vt 0.593140 0.249468
vt 0.483487 0.328308
vt 0.588439 0.294080
vt 0.014059 0.053048
vt 0.602191 0.294080
vt 0.242563 0.988772
vt 0.302344 0.328308
vt 0.014059 0.148066
vt 0.806001 0.769731
vt 0.322211 0.148066
vt 0.346984 0.328308
vt 0.450013 0.988772
vt 0.581421 0.249337
vt 0.556630 0.313180
vt 0.587918 0.210332
vt 0.048938 0.077751
vt 0.154229 0.411173
vt 0.863988 0.896871
vt 0.333855 0.082908
vt 0.550111 0.210332
vt 0.210098 0.820876
vt 0.553174 0.210332
vt 0.550111 0.328730
s 0
g off
g Road6_End_Road6_EndMaterial
usemtl Road6_EndMaterial
f 10/1/1 4/2/1 12/3/1
f 85/4/2 2/5/2 97/6/2
f 97/7/3 11/8/3 87/9/3
f 13/10/4 8/11/4 11/12/4
f 76/13/4 39/14/4 72/15/4
f 3/16/4 11/17/4 2/18/4
f 86/19/3 11/20/3 8/21/3
f 7/22/1 12/23/1 6/24/1
f 89/25/5 16/26/5 88/27/5
f 13/10/4 19/28/4 9/29/4
f 5/30/2 46/31/2 42/32/2
f 3/16/4 18/33/4 13/34/4
f 10/1/1 15/35/1 5/36/1
f 7/22/1 14/37/1 10/38/1
f 14/39/2 50/40/2 48/41/2
f 20/42/1 23/43/1 14/37/1
f 55/44/6 26/45/6 56/46/6
f 29/47/4 24/48/4 31/49/4
f 17/50/2 58/51/2 53/52/2
f 30/53/1 35/37/1 17/38/1
f 1/54/1 61/55/1 68/56/1
f 30/53/1 1/23/1 28/57/1
f 27/58/1 28/59/1 26/60/1
f 38/61/4 31/62/4 39/63/4
f 27/58/1 34/64/1 30/65/1
f 35/66/2 52/67/2 58/51/2
f 29/47/4 40/68/4 25/69/4
f 38/61/4 33/70/4 29/71/4
f 34/72/1 37/43/1 35/37/1
f 99/73/6 40/74/6 98/75/6
f 95/76/5 40/77/5 33/78/5
f 94/79/3 24/80/3 93/81/3
f 92/82/3 31/83/3 94/84/3
f 61/85/5 53/86/5 84/87/5
f 54/88/3 68/89/3 77/90/3
f 119/91/3 77/90/3 110/92/3
f 84/87/5 118/93/5 127/94/5
f 1/95/3 57/96/3 28/97/3
f 28/98/3 56/99/3 26/100/3
f 32/101/5 59/102/5 34/103/5
f 55/44/6 32/101/6 27/104/6
f 36/105/5 52/67/5 37/106/5
f 59/107/6 36/105/6 34/108/6
f 58/51/7 139/109/7 130/110/7
f 53/52/7 130/110/7 118/111/7
f 106/112/6 56/46/6 120/113/6
f 48/114/2 117/115/2 116/116/2
f 47/117/6 22/118/6 20/119/6
f 22/118/5 50/40/5 23/120/5
f 42/32/2 115/121/2 111/122/2
f 14/123/5 46/31/5 15/124/5
f 12/125/3 44/126/3 6/127/3
f 43/128/6 20/119/6 7/129/6
f 12/130/3 41/131/3 45/132/3
f 5/30/2 41/133/2 4/134/2
f 112/135/5 81/136/5 124/137/5
f 124/137/5 82/138/5 125/139/5
f 82/138/5 126/140/5 125/139/5
f 83/141/5 127/94/5 126/140/5
f 113/142/3 80/143/3 44/144/3
f 107/145/3 79/146/3 80/143/3
f 109/147/3 79/146/3 108/148/3
f 110/92/3 78/149/3 109/147/3
f 80/143/3 6/150/3 44/144/3
f 79/146/3 65/151/3 80/143/3
f 78/149/3 66/152/3 79/146/3
f 78/149/3 68/89/3 67/153/3
f 7/154/5 81/136/5 43/155/5
f 64/156/5 82/138/5 81/136/5
f 63/157/5 83/141/5 82/138/5
f 83/141/5 61/85/5 84/87/5
f 65/158/1 7/159/1 6/160/1
f 66/161/1 64/162/1 65/158/1
f 67/163/1 63/164/1 66/161/1
f 68/56/1 62/165/1 67/163/1
f 9/166/4 69/167/4 8/168/4
f 73/169/4 70/170/4 69/167/4
f 74/171/4 71/172/4 70/170/4
f 75/173/4 72/15/4 71/172/4
f 72/174/3 102/175/3 71/176/3
f 71/176/3 101/177/3 70/178/3
f 69/179/3 101/180/3 100/181/3
f 8/182/3 100/183/3 86/184/3
f 74/185/4 151/186/4 75/187/4
f 133/188/8 138/189/8 141/190/8
f 85/4/2 16/191/2 3/192/2
f 25/193/6 93/194/6 24/195/6
f 76/196/4 148/197/4 38/198/4
f 39/199/3 103/200/3 72/174/3
f 119/201/3 94/202/3 121/203/3
f 121/204/3 93/81/3 120/205/3
f 122/206/5 98/75/5 95/207/5
f 106/112/6 98/75/6 105/208/6
f 139/109/5 96/209/5 91/210/5
f 122/211/6 96/209/6 123/212/6
f 89/213/9 138/189/9 129/214/9
f 137/215/5 90/216/5 117/115/5
f 115/121/5 89/217/5 88/218/5
f 113/219/3 87/220/3 86/221/3
f 129/222/5 18/223/5 89/224/5
f 104/225/3 87/9/3 114/226/3
f 111/122/2 97/6/2 104/227/2
f 42/32/2 104/227/2 41/133/2
f 45/132/3 104/225/3 114/226/3
f 112/228/10 47/229/10 43/230/10
f 44/126/3 114/231/3 113/219/3
f 48/232/5 115/121/5 46/31/5
f 49/233/5 117/115/5 50/234/5
f 128/235/10 49/233/10 47/229/10
f 59/107/6 123/212/6 60/236/6
f 52/67/5 123/212/5 139/109/5
f 55/44/6 105/208/6 51/237/6
f 59/102/5 105/208/5 122/206/5
f 56/99/3 121/204/3 120/205/3
f 54/238/3 121/203/3 57/96/3
f 103/239/3 109/240/3 102/241/3
f 102/241/3 108/242/3 101/243/3
f 100/244/3 108/242/3 107/245/3
f 86/246/3 107/245/3 113/247/3
f 127/248/11 135/249/11 126/250/11
f 111/122/2 88/218/2 85/4/2
f 116/116/2 90/216/2 89/213/2
f 99/73/6 120/113/6 93/194/6
f 124/251/12 128/235/12 112/228/12
f 92/252/3 110/253/3 103/239/3
f 154/254/13 91/255/13 131/256/13
f 134/257/14 140/258/14 132/259/14
f 153/260/15 147/261/15 154/254/15
f 135/249/1 142/262/1 134/257/1
f 126/250/1 134/257/1 125/263/1
f 125/263/14 132/259/14 124/251/14
f 19/264/5 133/265/5 21/266/5
f 118/267/16 136/268/16 127/248/16
f 144/269/5 147/261/5 145/270/5
f 142/262/5 145/270/5 143/271/5
f 141/190/5 142/262/5 143/271/5
f 138/189/5 140/258/5 141/190/5
f 146/272/5 91/255/5 147/261/5
f 9/273/4 21/274/4 73/275/4
f 152/276/4 145/270/4 153/260/4
f 132/259/12 137/215/12 128/235/12
f 136/268/11 144/269/11 135/249/11
f 133/188/17 143/271/17 152/276/17
f 130/277/16 146/272/16 136/268/16
f 153/278/5 149/279/5 151/280/5
f 152/281/5 151/280/5 150/282/5
f 21/266/5 152/281/5 150/282/5
f 154/283/5 148/284/5 149/279/5
f 75/187/4 149/285/4 76/196/4
f 33/70/5 131/286/5 95/287/5
f 73/275/4 150/288/4 74/185/4
f 95/289/18 91/255/18 96/290/18
f 10/1/1 5/36/1 4/2/1
f 85/4/2 3/192/2 2/5/2
f 97/7/3 2/291/3 11/8/3
f 13/10/4 9/29/4 8/11/4
f 76/13/4 38/292/4 39/14/4
f 3/16/4 13/34/4 11/17/4
f 86/19/3 87/293/3 11/20/3
f 7/22/1 10/38/1 12/23/1
f 89/25/5 18/294/5 16/26/5
f 13/10/4 18/223/4 19/28/4
f 5/30/2 15/124/2 46/31/2
f 3/16/4 16/295/4 18/33/4
f 10/1/1 14/296/1 15/35/1
f 7/22/1 20/42/1 14/37/1
f 14/39/2 23/120/2 50/40/2
f 20/42/1 22/297/1 23/43/1
f 55/44/6 27/104/6 26/45/6
f 29/47/4 25/69/4 24/48/4
f 17/50/2 35/66/2 58/51/2
f 30/53/1 34/72/1 35/37/1
f 1/54/1 17/298/1 61/55/1
f 30/53/1 17/38/1 1/23/1
f 27/58/1 30/65/1 28/59/1
f 38/61/4 29/71/4 31/62/4
f 27/58/1 32/299/1 34/64/1
f 35/66/2 37/106/2 52/67/2
f 29/47/4 33/300/4 40/68/4
f 38/61/4 148/301/4 33/70/4
f 34/72/1 36/302/1 37/43/1
f 99/73/6 25/193/6 40/74/6
f 95/76/5 98/303/5 40/77/5
f 94/79/3 31/304/3 24/80/3
f 92/82/3 39/305/3 31/83/3
f 61/85/5 17/306/5 53/86/5
f 54/88/3 1/307/3 68/89/3
f 119/91/3 54/88/3 77/90/3
f 84/87/5 53/86/5 118/93/5
f 1/95/3 54/238/3 57/96/3
f 28/98/3 57/308/3 56/99/3
f 32/101/5 51/237/5 59/102/5
f 55/44/6 51/237/6 32/101/6
f 36/105/5 60/236/5 52/67/5
f 59/107/6 60/236/6 36/105/6
f 58/51/7 52/67/7 139/109/7
f 53/52/7 58/51/7 130/110/7
f 106/112/6 55/44/6 56/46/6
f 48/114/2 50/234/2 117/115/2
f 47/117/6 49/309/6 22/118/6
f 22/118/5 49/309/5 50/40/5
f 42/32/2 46/31/2 115/121/2
f 14/123/5 48/232/5 46/31/5
f 12/125/3 45/310/3 44/126/3
f 43/128/6 47/117/6 20/119/6
f 12/130/3 4/311/3 41/131/3
f 5/30/2 42/32/2 41/133/2
f 112/135/5 43/155/5 81/136/5
f 124/137/5 81/136/5 82/138/5
f 82/138/5 83/141/5 126/140/5
f 83/141/5 84/87/5 127/94/5
f 113/142/3 107/145/3 80/143/3
f 107/145/3 108/148/3 79/146/3
f 109/147/3 78/149/3 79/146/3
f 110/92/3 77/90/3 78/149/3
f 80/143/3 65/151/3 6/150/3
f 79/146/3 66/152/3 65/151/3
f 78/149/3 67/153/3 66/152/3
f 78/149/3 77/90/3 68/89/3
f 7/154/5 64/156/5 81/136/5
f 64/156/5 63/157/5 82/138/5
f 63/157/5 62/312/5 83/141/5
f 83/141/5 62/312/5 61/85/5
f 65/158/1 64/162/1 7/159/1
f 66/161/1 63/164/1 64/162/1
f 67/163/1 62/165/1 63/164/1
f 68/56/1 61/55/1 62/165/1
f 9/166/4 73/169/4 69/167/4
f 73/169/4 74/171/4 70/170/4
f 74/171/4 75/173/4 71/172/4
f 75/173/4 76/13/4 72/15/4
f 72/174/3 103/200/3 102/175/3
f 71/176/3 102/175/3 101/177/3
f 69/179/3 70/313/3 101/180/3
f 8/182/3 69/314/3 100/183/3
f 74/185/4 150/288/4 151/186/4
f 133/188/8 129/214/8 138/189/8
f 85/4/2 88/218/2 16/191/2
f 25/193/6 99/73/6 93/194/6
f 76/196/4 149/285/4 148/197/4
f 39/199/3 92/315/3 103/200/3
f 119/201/3 92/316/3 94/202/3
f 121/204/3 94/79/3 93/81/3
f 122/206/5 105/208/5 98/75/5
f 106/112/6 99/73/6 98/75/6
f 139/109/5 123/212/5 96/209/5
f 122/211/6 95/317/6 96/209/6
f 89/213/9 90/216/9 138/189/9
f 137/215/5 138/189/5 90/216/5
f 115/121/5 116/318/5 89/217/5
f 113/219/3 114/231/3 87/220/3
f 129/222/5 19/28/5 18/223/5
f 104/225/3 97/7/3 87/9/3
f 111/122/2 85/4/2 97/6/2
f 42/32/2 111/122/2 104/227/2
f 45/132/3 41/131/3 104/225/3
f 112/228/10 128/235/10 47/229/10
f 44/126/3 45/310/3 114/231/3
f 48/232/5 116/318/5 115/121/5
f 49/233/5 137/215/5 117/115/5
f 128/235/10 137/215/10 49/233/10
f 59/107/6 122/211/6 123/212/6
f 52/67/5 60/236/5 123/212/5
f 55/44/6 106/112/6 105/208/6
f 59/102/5 51/237/5 105/208/5
f 56/99/3 57/308/3 121/204/3
f 54/238/3 119/201/3 121/203/3
f 103/239/3 110/253/3 109/240/3
f 102/241/3 109/240/3 108/242/3
f 100/244/3 101/243/3 108/242/3
f 86/246/3 100/244/3 107/245/3
f 127/248/11 136/268/11 135/249/11
f 111/122/2 115/121/2 88/218/2
f 116/116/2 117/115/2 90/216/2
f 99/73/6 106/112/6 120/113/6
f 124/251/12 132/259/12 128/235/12
f 92/252/3 119/319/3 110/253/3
f 154/254/13 147/261/13 91/255/13
f 134/257/14 142/262/14 140/258/14
f 153/260/15 145/270/15 147/261/15
f 135/249/1 144/269/1 142/262/1
f 126/250/1 135/249/1 134/257/1
f 125/263/14 134/257/14 132/259/14
f 19/264/5 129/320/5 133/265/5
f 118/267/16 130/277/16 136/268/16
f 144/269/5 146/272/5 147/261/5
f 142/262/5 144/269/5 145/270/5
f 141/190/5 140/258/5 142/262/5
f 138/189/5 137/215/5 140/258/5
f 146/272/5 139/321/5 91/255/5
f 9/273/4 19/322/4 21/274/4
f 152/276/4 143/271/4 145/270/4
f 132/259/12 140/258/12 137/215/12
f 136/268/11 146/272/11 144/269/11
f 133/188/17 141/190/17 143/271/17
f 130/277/16 139/321/16 146/272/16
f 153/278/5 154/283/5 149/279/5
f 152/281/5 153/278/5 151/280/5
f 21/266/5 133/265/5 152/281/5
f 154/283/5 131/323/5 148/284/5
f 75/187/4 151/186/4 149/285/4
f 33/70/5 148/301/5 131/286/5
f 73/275/4 21/274/4 150/288/4
f 95/289/18 131/256/18 91/255/18
