# Blender 4.5.3 LTS
# www.blender.org
mtllib Road1_Curve1.mtl
g Road1_Curve1_Mesh
v 9.224941 0.000000 2.775058
v -6.000000 0.000000 -5.999998
v -6.000000 0.199999 -5.999998
v 1.514723 0.000000 10.485281
v 1.514723 0.199999 10.485281
v 2.289767 0.000000 9.710237
v 2.289767 0.199999 9.710237
v -4.903923 0.000000 -5.999999
v -4.903923 0.199999 -5.999999
v 2.044881 0.199999 9.955123
v -5.250244 0.000000 -5.999998
v 2.044881 0.000000 9.955123
v -5.250244 0.199999 -5.999998
v 2.044881 0.410548 9.955123
v 1.514723 0.410548 10.485281
v -6.000000 0.410548 -5.999998
v 9.224941 0.199999 2.775058
v -5.250244 0.410548 -5.999998
v -4.903923 0.410548 -5.999999
v 2.289767 0.410548 9.710237
v -5.250244 0.475349 -5.999998
v -4.903923 0.475349 -5.999999
v 2.289767 0.475349 9.710237
v 2.044881 0.475349 9.955123
v 6.000000 0.000000 -6.000002
v 6.000000 0.199999 -6.000002
v 10.000001 0.000000 1.999998
v 10.000001 0.199999 1.999998
v 9.469829 0.000000 2.530170
v 5.250222 0.199999 -6.000002
v 9.469829 0.199999 2.530170
v 5.250222 0.000000 -6.000002
v 10.000001 0.410548 1.999998
v 5.250222 0.410548 -6.000002
v 9.469829 0.410548 2.530170
v 9.224941 0.410548 2.775058
v 9.469829 0.475349 2.530170
v 9.224941 0.475349 2.775058
v 4.903901 0.199999 -6.000000
v 4.903901 0.000000 -6.000000
v 6.000000 0.410548 -6.000000
v 4.903900 0.410548 -6.000000
v 4.903901 0.475349 -6.000000
v 5.250222 0.475349 -6.000000
v -5.386842 0.000000 -0.447084
v -2.855346 0.000000 5.408711
v -2.855346 0.199999 5.408711
v -5.386842 0.199999 -0.447084
v -1.906114 0.199999 4.860672
v -4.328112 0.199999 -0.730770
v -1.906114 0.000000 4.860672
v -4.328112 0.000000 -0.730770
v -2.206037 0.000000 5.033833
v -4.662632 0.000000 -0.641136
v -2.855346 0.410548 5.408711
v -5.386842 0.410548 -0.447084
v -1.906114 0.410548 4.860672
v -4.328112 0.410548 -0.730770
v -2.206037 0.410548 5.033833
v -4.662632 0.410548 -0.641136
v -1.906114 0.475349 4.860672
v -4.328112 0.475349 -0.730770
v -2.206037 0.475349 5.033833
v -4.662632 0.475349 -0.641136
v 6.204268 0.410548 -3.552915
v 7.536958 0.410548 -0.591291
v 6.587708 0.475349 -0.043241
v 5.145516 0.475349 -3.269223
v 6.587708 0.199999 -0.043241
v 5.145516 0.199999 -3.269223
v 6.587708 0.000000 -0.043241
v 5.145516 0.000000 -3.269223
v 6.204267 0.199999 -3.552916
v 7.536958 0.199999 -0.591292
v 7.536958 0.000000 -0.591292
v 6.204267 0.000000 -3.552916
v 6.887630 0.000000 -0.216403
v 5.480037 0.000000 -3.358859
v 6.587707 0.410548 -0.043241
v 5.145516 0.410548 -3.269223
v 6.887630 0.410548 -0.216403
v 5.480037 0.410548 -3.358859
v 6.887630 0.475349 -0.216402
v 5.480038 0.475349 -3.358858
vn 0.7071 -0.0000 0.7071
vn -0.9940 -0.0000 0.1098
vn -0.0000 -1.0000 -0.0000
vn -0.0000 -0.0000 -1.0000
vn 0.9941 -0.0000 -0.1086
vn -0.0000 1.0000 -0.0000
vn -0.7579 -0.0000 0.6524
vn -0.7568 -0.0000 0.6537
vn 0.7248 -0.0000 -0.6889
vn -0.7302 -0.0000 0.6833
vn 0.9962 -0.0000 -0.0867
vn 0.9965 -0.0000 -0.0832
vn 0.9119 -0.0000 -0.4104
vn 0.7286 -0.0000 -0.6850
vn 0.9126 -0.0000 -0.4088
vn -0.9961 -0.0000 0.0881
vn -0.9129 -0.0000 0.4081
vn -0.9940 -0.0000 0.1090
vn -0.9177 -0.0000 0.3973
vn 0.7562 -0.0000 -0.6543
vn 0.9176 -0.0000 -0.3975
vn -0.9179 -0.0000 0.3968
vt 0.700073 0.258574
vt 0.512246 0.208471
vt 0.700073 0.208471
vt 0.966471 0.777257
vt 0.987815 0.988772
vt 0.987815 0.777257
vt 0.364182 0.144801
vt 0.346984 0.053048
vt 0.364182 0.053048
vt 0.483486 0.258893
vt 0.396179 0.208474
vt 0.483486 0.208474
vt 0.077368 0.020569
vt 0.302344 0.031901
vt 0.077368 0.031901
vt 0.776612 0.988772
vt 0.799084 0.777257
vt 0.776612 0.777257
vt 0.512246 0.261217
vt 0.700073 0.311320
vt 0.512246 0.311320
vt 0.330155 0.144801
vt 0.322211 0.053048
vt 0.330155 0.053048
vt 0.483486 0.311972
vt 0.396179 0.328308
vt 0.396179 0.311972
vt 0.863988 0.777257
vt 0.944001 0.988772
vt 0.944001 0.777257
vt 0.396179 0.258893
vt 0.966471 0.354227
vt 0.944001 0.565742
vt 0.966471 0.565742
vt 0.700073 0.261217
vt 0.512246 0.258574
vt 0.806001 0.777257
vt 0.842965 0.988772
vt 0.842965 0.777257
vt 0.799084 0.988772
vt 0.849882 0.354227
vt 0.842965 0.565742
vt 0.849882 0.565742
vt 0.116545 0.565742
vt 0.137889 0.354227
vt 0.137889 0.565742
vt 0.512247 0.261218
vt 0.700073 0.311320
vt 0.512247 0.311320
vt 0.227499 0.777257
vt 0.205026 0.988772
vt 0.205026 0.777257
vt 0.483487 0.258893
vt 0.302344 0.020569
vt 0.077368 0.031901
vt 0.483487 0.208474
vt 0.512247 0.261218
vt 0.700073 0.311320
vt 0.512247 0.311320
vt 0.700073 0.208474
vt 0.700073 0.261218
vt 0.198110 0.777257
vt 0.700073 0.208474
vt 0.700073 0.261218
vt 0.483486 0.328308
vt 0.483487 0.311972
vt 0.154229 0.565742
vt 0.161145 0.354227
vt 0.161145 0.565742
vt 0.198110 0.354227
vt 0.198110 0.565742
vt 0.116545 0.777257
vt 0.094075 0.988772
vt 0.094075 0.777257
vt 0.014059 0.988772
vt 0.014059 0.777257
vt 0.031258 0.144801
vt 0.014059 0.053048
vt 0.031258 0.053048
vt 0.056882 0.144801
vt 0.048938 0.053048
vt 0.056882 0.053048
vt 0.761189 0.988772
vt 0.242563 0.777257
vt 0.761189 0.777257
vt 0.302344 0.236555
vt 0.077368 0.328308
vt 0.077368 0.236555
vt 0.077368 0.053048
vt 0.302344 0.144801
vt 0.077368 0.144801
vt 0.761189 0.354227
vt 0.242563 0.565742
vt 0.242563 0.354227
vt 0.761189 0.565742
vt 0.048938 0.328308
vt 0.056882 0.236555
vt 0.056882 0.328308
vt 0.048938 0.236555
vt 0.014059 0.328308
vt 0.031258 0.236555
vt 0.031258 0.328308
vt 0.014059 0.236555
vt 0.014059 0.354227
vt 0.094075 0.565742
vt 0.014059 0.565742
vt 0.116545 0.354227
vt 0.094075 0.354227
vt 0.198110 0.988772
vt 0.161145 0.777257
vt 0.154229 0.988772
vt 0.161145 0.988772
vt 0.154229 0.777257
vt 0.205026 0.354227
vt 0.205026 0.565742
vt 0.227499 0.565742
vt 0.227499 0.354227
vt 0.116545 0.988772
vt 0.137889 0.777257
vt 0.137889 0.988772
vt 0.849882 0.777257
vt 0.849882 0.988772
vt 0.799084 0.565742
vt 0.806001 0.354227
vt 0.799084 0.354227
vt 0.806001 0.565742
vt 0.842965 0.354227
vt 0.966471 0.988772
vt 0.944001 0.354227
vt 0.863988 0.565742
vt 0.322211 0.328308
vt 0.330155 0.236555
vt 0.330155 0.328308
vt 0.322211 0.236555
vt 0.776612 0.565742
vt 0.776612 0.354227
vt 0.346984 0.328308
vt 0.364182 0.236555
vt 0.364182 0.328308
vt 0.346984 0.236555
vt 0.987815 0.565742
vt 0.987815 0.354227
vt 0.346984 0.144801
vt 0.302344 0.020569
vt 0.322211 0.144801
vt 0.863988 0.988772
vt 0.806001 0.988772
vt 0.227499 0.988772
vt 0.512247 0.208474
vt 0.512247 0.208474
vt 0.483487 0.328308
vt 0.154229 0.354227
vt 0.014059 0.144801
vt 0.048938 0.144801
vt 0.242563 0.988772
vt 0.302344 0.328308
vt 0.302344 0.053048
vt 0.863988 0.354227
s 0
g off
g Road1_Curve1_Road1Material
usemtl Road1Material
f 10/1/1 4/2/1 12/3/1
f 48/4/2 2/5/2 45/6/2
f 54/7/3 2/8/3 11/9/3
f 13/10/4 8/11/4 11/12/4
f 9/13/4 40/14/4 8/15/4
f 9/16/5 58/17/5 50/18/5
f 3/19/4 11/20/4 2/21/4
f 52/22/3 11/23/3 8/24/3
f 7/10/1 12/11/1 6/12/1
f 18/25/4 22/26/4 19/27/4
f 60/28/6 16/29/6 56/30/6
f 13/10/4 19/27/4 9/31/4
f 5/32/7 55/33/7 47/34/7
f 3/19/4 18/3/4 13/35/4
f 10/1/1 15/21/1 5/36/1
f 7/10/1 14/27/1 10/31/1
f 62/37/6 21/38/6 64/39/6
f 19/40/5 62/37/5 58/17/5
f 14/41/8 63/42/8 59/43/8
f 20/25/1 24/26/1 14/27/1
f 74/44/9 27/45/9 75/46/9
f 30/47/4 25/48/4 32/49/4
f 69/50/10 36/51/10 79/52/10
f 31/53/1 36/27/1 17/31/1
f 1/54/1 7/55/1 6/13/1
f 31/53/1 1/11/1 29/56/1
f 28/57/1 29/58/1 27/59/1
f 39/10/4 32/11/4 40/12/4
f 28/57/1 35/60/1 31/61/1
f 36/51/10 67/62/10 79/52/10
f 30/47/4 41/63/4 26/64/4
f 39/10/4 34/27/4 30/31/4
f 34/27/4 43/65/4 44/26/4
f 35/66/1 38/26/1 36/27/1
f 82/67/11 44/68/11 84/69/11
f 84/69/6 43/70/6 68/71/6
f 73/72/12 41/73/12 65/74/12
f 65/74/6 34/75/6 82/76/6
f 76/77/3 32/78/3 25/79/3
f 78/80/3 40/81/3 32/82/3
f 7/83/6 69/84/6 49/85/6
f 71/86/3 6/87/3 51/88/3
f 8/89/3 72/90/3 52/91/3
f 72/90/3 51/88/3 52/91/3
f 9/92/6 70/93/6 39/94/6
f 49/85/6 70/93/6 50/95/6
f 1/96/3 77/97/3 29/98/3
f 71/99/3 78/80/3 77/97/3
f 29/100/3 75/101/3 27/102/3
f 77/103/3 76/77/3 75/101/3
f 35/104/6 66/105/6 81/106/6
f 81/106/6 65/74/6 82/76/6
f 28/107/9 66/105/9 33/108/9
f 74/44/13 65/74/13 66/105/13
f 38/109/6 83/110/6 67/62/6
f 67/62/6 84/69/6 68/71/6
f 35/111/14 83/110/14 37/112/14
f 81/113/15 84/69/15 83/110/15
f 42/114/16 68/71/16 43/70/16
f 79/52/17 68/71/17 80/115/17
f 70/116/16 42/114/16 39/117/16
f 70/116/17 79/52/17 80/115/17
f 26/118/12 76/119/12 25/120/12
f 73/72/13 75/46/13 76/119/13
f 60/121/18 21/38/18 18/122/18
f 59/43/19 64/39/19 60/121/19
f 57/123/20 23/124/20 20/125/20
f 58/17/21 61/126/21 57/123/21
f 24/127/6 61/126/6 63/42/6
f 63/42/6 62/37/6 64/39/6
f 48/4/2 16/29/2 3/128/2
f 47/34/22 56/30/22 48/4/22
f 15/129/6 59/130/6 55/33/6
f 55/33/6 60/28/6 56/30/6
f 12/131/3 51/132/3 6/133/3
f 53/134/3 52/22/3 51/132/3
f 49/135/20 20/125/20 7/136/20
f 50/18/21 57/123/21 49/135/21
f 4/137/3 53/138/3 12/139/3
f 46/140/3 54/7/3 53/138/3
f 5/32/7 46/141/7 4/142/7
f 47/34/22 45/6/22 46/141/22
f 10/1/1 5/36/1 4/2/1
f 48/4/2 3/128/2 2/5/2
f 54/7/3 45/143/3 2/8/3
f 13/10/4 9/31/4 8/11/4
f 9/13/4 39/144/4 40/14/4
f 9/16/5 19/40/5 58/17/5
f 3/19/4 13/35/4 11/20/4
f 52/22/3 54/145/3 11/23/3
f 7/10/1 10/31/1 12/11/1
f 18/25/4 21/65/4 22/26/4
f 60/28/6 18/146/6 16/29/6
f 13/10/4 18/25/4 19/27/4
f 5/32/7 15/129/7 55/33/7
f 3/19/4 16/2/4 18/3/4
f 10/1/1 14/20/1 15/21/1
f 7/10/1 20/25/1 14/27/1
f 62/37/6 22/147/6 21/38/6
f 19/40/5 22/147/5 62/37/5
f 14/41/8 24/127/8 63/42/8
f 20/25/1 23/65/1 24/26/1
f 74/44/9 28/107/9 27/45/9
f 30/47/4 26/64/4 25/48/4
f 69/50/10 17/148/10 36/51/10
f 31/53/1 35/66/1 36/27/1
f 1/54/1 17/14/1 7/55/1
f 31/53/1 17/31/1 1/11/1
f 28/57/1 31/61/1 29/58/1
f 39/10/4 30/31/4 32/11/4
f 28/57/1 33/149/1 35/60/1
f 36/51/10 38/109/10 67/62/10
f 30/47/4 34/150/4 41/63/4
f 39/10/4 42/66/4 34/27/4
f 34/27/4 42/66/4 43/65/4
f 35/66/1 37/151/1 38/26/1
f 82/67/11 34/152/11 44/68/11
f 84/69/6 44/68/6 43/70/6
f 73/72/12 26/118/12 41/73/12
f 65/74/6 41/73/6 34/75/6
f 76/77/3 78/153/3 32/78/3
f 78/80/3 72/154/3 40/81/3
f 7/83/6 17/155/6 69/84/6
f 71/86/3 1/156/3 6/87/3
f 8/89/3 40/157/3 72/90/3
f 72/90/3 71/86/3 51/88/3
f 9/92/6 50/95/6 70/93/6
f 49/85/6 69/84/6 70/93/6
f 1/96/3 71/99/3 77/97/3
f 71/99/3 72/154/3 78/80/3
f 29/100/3 77/103/3 75/101/3
f 77/103/3 78/153/3 76/77/3
f 35/104/6 33/108/6 66/105/6
f 81/106/6 66/105/6 65/74/6
f 28/107/9 74/44/9 66/105/9
f 74/44/13 73/72/13 65/74/13
f 38/109/6 37/112/6 83/110/6
f 67/62/6 83/110/6 84/69/6
f 35/111/14 81/113/14 83/110/14
f 81/113/15 82/67/15 84/69/15
f 42/114/16 80/115/16 68/71/16
f 79/52/17 67/62/17 68/71/17
f 70/116/16 80/115/16 42/114/16
f 70/116/17 69/50/17 79/52/17
f 26/118/12 73/72/12 76/119/12
f 73/72/13 74/44/13 75/46/13
f 60/121/18 64/39/18 21/38/18
f 59/43/19 63/42/19 64/39/19
f 57/123/20 61/126/20 23/124/20
f 58/17/21 62/37/21 61/126/21
f 24/127/6 23/124/6 61/126/6
f 63/42/6 61/126/6 62/37/6
f 48/4/2 56/30/2 16/29/2
f 47/34/22 55/33/22 56/30/22
f 15/129/6 14/158/6 59/130/6
f 55/33/6 59/130/6 60/28/6
f 12/131/3 53/134/3 51/132/3
f 53/134/3 54/145/3 52/22/3
f 49/135/20 57/123/20 20/125/20
f 50/18/21 58/17/21 57/123/21
f 4/137/3 46/140/3 53/138/3
f 46/140/3 45/143/3 54/7/3
f 5/32/7 47/34/7 46/141/7
f 47/34/22 48/4/22 45/6/22
