# Blender 4.5.3 LTS
# www.blender.org
mtllib Road1_Curve2.mtl
g Road1_Curve2_Mesh
v 12.982306 0.000000 14.532413
v -3.326965 0.000000 7.719365
v 5.272081 0.000000 22.242636
v 5.272081 0.199999 22.242636
v 6.047127 0.000000 21.467590
v 6.047127 0.199999 21.467590
v -2.268235 0.199999 7.435678
v 5.802236 0.199999 21.712479
v -2.602756 0.000000 7.525313
v 5.802236 0.000000 21.712479
v -2.602756 0.199999 7.525313
v 5.802236 0.410548 21.712479
v 5.272081 0.410548 22.242636
v 12.982306 0.199999 14.532413
v -2.602756 0.410548 7.525313
v 6.047127 0.410548 21.467590
v -2.602756 0.475349 7.525313
v -2.268235 0.475349 7.435678
v 6.047127 0.475349 21.467590
v 5.802236 0.475349 21.712479
v 8.264144 0.000000 4.613532
v 8.264144 0.199999 4.613532
v 13.757362 0.000000 13.757355
v 13.757356 0.199999 13.757353
v 13.227184 0.000000 14.287525
v 7.539915 0.199999 4.807589
v 13.227184 0.199999 14.287525
v 7.539915 0.000000 4.807589
v 13.757362 0.410548 13.757355
v 7.539915 0.410548 4.807589
v 13.227184 0.410548 14.287525
v 12.982306 0.410548 14.532413
v 13.227184 0.475349 14.287525
v 12.982306 0.475349 14.532413
v 7.205395 0.199999 4.897226
v 8.264145 0.410548 4.613534
v 7.205393 0.000000 4.897224
v -6.000000 0.000000 -5.999998
v -6.000000 0.199999 -5.999998
v -3.326965 0.199999 7.719365
v -2.268235 0.000000 7.435678
v -4.903923 0.000000 -5.999998
v -4.903923 0.199999 -5.999998
v -5.250244 0.000000 -5.999998
v -5.250244 0.199999 -5.999998
v -3.326965 0.410548 7.719365
v -6.000000 0.410548 -5.999998
v -5.250244 0.410548 -5.999998
v -4.903923 0.410548 -5.999998
v -2.268235 0.410548 7.435678
v -5.250244 0.475349 -5.999998
v -4.903923 0.475349 -5.999998
v 6.000000 0.000000 -6.000002
v 6.000000 0.199999 -6.000002
v 5.250222 0.199999 -6.000002
v 5.250222 0.000000 -6.000002
v 5.250222 0.410548 -6.000002
v 7.205393 0.410548 4.897224
v 7.539915 0.475349 4.807589
v 7.205393 0.475349 4.897224
v 4.903901 0.199999 -6.000000
v 4.903901 0.000000 -6.000000
v 6.000000 0.410548 -6.000000
v 4.903900 0.410548 -6.000000
v 4.903901 0.475349 -6.000000
v 5.250222 0.475349 -6.000000
v -1.312612 0.000000 12.187206
v 0.938500 0.000000 16.496334
v 0.938500 0.199999 16.496334
v -1.312612 0.199999 12.187206
v 1.931884 0.199999 16.033112
v -0.282636 0.199999 11.812325
v 1.931884 0.000000 16.033112
v -0.282636 0.000000 11.812325
v 1.618010 0.000000 16.179474
v -0.608072 0.000000 11.930775
v 0.938500 0.410548 16.496334
v -1.312612 0.410548 12.187206
v 1.931884 0.410548 16.033112
v -0.282636 0.410548 11.812325
v 1.618010 0.410548 16.179474
v -0.608072 0.410548 11.930775
v 1.931884 0.475349 16.033112
v -0.282636 0.475349 11.812325
v 1.618010 0.475349 16.179474
v -0.608072 0.475349 11.930775
v 9.963699 0.410548 8.082962
v 11.814194 0.410548 11.424912
v 10.820790 0.475349 11.888144
v 8.933703 0.475349 8.457850
v 10.820790 0.199999 11.888144
v 8.933703 0.199999 8.457850
v 10.820790 0.000000 11.888144
v 8.933703 0.000000 8.457850
v 9.963698 0.199999 8.082960
v 11.814194 0.199999 11.424911
v 11.814194 0.000000 11.424911
v 9.963698 0.000000 8.082960
v 11.134665 0.000000 11.741782
v 9.259138 0.000000 8.339400
v 10.820789 0.410548 11.888144
v 8.933703 0.410548 8.457851
v 11.134665 0.410548 11.741782
v 9.259138 0.410548 8.339400
v 11.134665 0.475349 11.741782
v 9.259138 0.475349 8.339401
v -5.536263 0.000000 -1.439012
v -4.778306 0.000000 3.155819
v -4.778306 0.199999 3.155819
v -5.536263 0.199999 -1.439012
v -3.698879 0.199999 2.965486
v -4.444355 0.199999 -1.534541
v -3.698879 0.000000 2.965486
v -4.444355 0.000000 -1.534541
v -4.039939 0.000000 3.025623
v -4.789359 0.000000 -1.504356
v -4.778306 0.410548 3.155819
v -5.536263 0.410548 -1.439012
v -3.698879 0.410548 2.965486
v -4.444355 0.410548 -1.534541
v -4.039939 0.410548 3.025623
v -4.789359 0.410548 -1.504356
v -3.698879 0.475349 2.965486
v -4.444355 0.475349 -1.534541
v -4.039939 0.475349 3.025623
v -4.789359 0.475349 -1.504356
v 6.418073 0.410548 -2.484882
v 7.039388 0.410548 1.072037
v 5.959941 0.475349 1.262371
v 5.326145 0.475349 -2.389352
v 5.959941 0.199999 1.262371
v 5.326145 0.199999 -2.389352
v 5.959941 0.000000 1.262371
v 5.326145 0.000000 -2.389352
v 6.418073 0.199999 -2.484884
v 7.039388 0.199999 1.072036
v 7.039388 0.000000 1.072036
v 6.418073 0.000000 -2.484884
v 6.301001 0.000000 1.202233
v 5.671149 0.000000 -2.419537
v 5.959940 0.410548 1.262371
v 5.326145 0.410548 -2.389352
v 6.301001 0.410548 1.202233
v 5.671149 0.410548 -2.419537
v 6.301001 0.475349 1.202233
v 5.671149 0.475349 -2.419536
vn 0.7071 -0.0000 0.7071
vn -0.9116 -0.0000 0.4110
vn -0.0000 -1.0000 -0.0000
vn 0.2588 -0.0000 0.9659
vn 0.9107 -0.0000 -0.4132
vn -0.0000 1.0000 -0.0000
vn -0.7984 -0.0000 0.6021
vn -0.7976 -0.0000 0.6032
vn 0.7683 -0.0000 -0.6401
vn -0.7742 -0.0000 0.6329
vn 0.8991 -0.0000 -0.4377
vn 0.8980 -0.0000 -0.4399
vn -0.9949 -0.0000 0.1012
vn -0.0000 -0.0000 -1.0000
vn 0.9947 -0.0000 -0.1024
vn -0.9530 -0.0000 0.3031
vn -0.9526 -0.0000 0.3043
vn 0.9451 -0.0000 -0.3268
vn -0.9460 -0.0000 0.3241
vn 0.9932 -0.0000 -0.1168
vn 0.9930 -0.0000 -0.1181
vn 0.8748 -0.0000 -0.4844
vn 0.7725 -0.0000 -0.6350
vn 0.8758 -0.0000 -0.4828
vn -0.8996 -0.0000 0.4367
vn -0.8762 -0.0000 0.4820
vn -0.9110 -0.0000 0.4125
vn -0.8858 -0.0000 0.4641
vn 0.7972 -0.0000 -0.6037
vn 0.8855 -0.0000 -0.4646
vn -0.8863 -0.0000 0.4630
vn 0.9851 -0.0000 -0.1721
vn 0.9457 -0.0000 -0.3250
vn 0.9852 -0.0000 -0.1713
vn -0.9932 -0.0000 0.1162
vn -0.9853 -0.0000 0.1710
vn -0.9948 -0.0000 0.1020
vn -0.9866 -0.0000 0.1632
vn 0.9524 -0.0000 -0.3048
vn 0.9866 -0.0000 -0.1634
vn -0.9867 -0.0000 0.1628
vt 0.700073 0.258574
vt 0.512246 0.208471
vt 0.700073 0.208471
vt 0.966471 0.777257
vt 0.987815 0.988772
vt 0.987815 0.777257
vt 0.346984 0.144801
vt 0.364182 0.053048
vt 0.364182 0.144801
vt 0.396179 0.208474
vt 0.483486 0.258893
vt 0.483486 0.208474
vt 0.302344 0.031901
vt 0.077368 0.020569
vt 0.077368 0.031901
vt 0.776612 0.988772
vt 0.799084 0.777257
vt 0.776612 0.777257
vt 0.700073 0.311320
vt 0.512246 0.261217
vt 0.512246 0.311320
vt 0.322211 0.144801
vt 0.330155 0.053048
vt 0.330155 0.144801
vt 0.396179 0.328308
vt 0.483486 0.311972
vt 0.396179 0.311972
vt 0.944001 0.777257
vt 0.863988 0.988772
vt 0.944001 0.988772
vt 0.396179 0.258893
vt 0.966471 0.354227
vt 0.944001 0.565742
vt 0.966471 0.565742
vt 0.700073 0.261217
vt 0.512246 0.258574
vt 0.842965 0.777257
vt 0.806001 0.988772
vt 0.842965 0.988772
vt 0.799084 0.988772
vt 0.806001 0.777257
vt 0.849882 0.354227
vt 0.842965 0.565742
vt 0.849882 0.565742
vt 0.137889 0.565742
vt 0.116545 0.354227
vt 0.137889 0.354227
vt 0.700073 0.311320
vt 0.512247 0.261218
vt 0.512247 0.311320
vt 0.227499 0.777257
vt 0.205026 0.988772
vt 0.205026 0.777257
vt 0.483487 0.258893
vt 0.302344 0.020569
vt 0.077368 0.031901
vt 0.483487 0.208474
vt 0.512247 0.261218
vt 0.700073 0.311320
vt 0.512247 0.311320
vt 0.700073 0.208474
vt 0.700073 0.261218
vt 0.198110 0.777257
vt 0.700073 0.261218
vt 0.512247 0.208474
vt 0.483487 0.311972
vt 0.154229 0.565742
vt 0.161145 0.354227
vt 0.161145 0.565742
vt 0.198110 0.565742
vt 0.198110 0.354227
vt 0.116545 0.777257
vt 0.094075 0.988772
vt 0.094075 0.777257
vt 0.014059 0.777257
vt 0.014059 0.988772
vt 0.014059 0.144801
vt 0.031258 0.053048
vt 0.031258 0.144801
vt 0.048938 0.144801
vt 0.056882 0.053048
vt 0.056882 0.144801
vt 0.761189 0.988772
vt 0.242563 0.777257
vt 0.761189 0.777257
vt 0.302344 0.236555
vt 0.077368 0.328308
vt 0.077368 0.236555
vt 0.116545 0.565742
vt 0.700073 0.208474
vt 0.483486 0.328308
vt 0.302344 0.053048
vt 0.077368 0.144801
vt 0.077368 0.053048
vt 0.302344 0.144801
vt 0.761189 0.565742
vt 0.242563 0.354227
vt 0.761189 0.354227
vt 0.242563 0.565742
vt 0.048938 0.328308
vt 0.056882 0.236555
vt 0.056882 0.328308
vt 0.048938 0.236555
vt 0.014059 0.328308
vt 0.031258 0.236555
vt 0.031258 0.328308
vt 0.014059 0.236555
vt 0.014059 0.354227
vt 0.094075 0.565742
vt 0.014059 0.565742
vt 0.094075 0.354227
vt 0.198110 0.988772
vt 0.161145 0.777257
vt 0.154229 0.777257
vt 0.161145 0.988772
vt 0.154229 0.988772
vt 0.205026 0.354227
vt 0.205026 0.565742
vt 0.227499 0.354227
vt 0.227499 0.565742
vt 0.116545 0.988772
vt 0.137889 0.777257
vt 0.137889 0.988772
vt 0.849882 0.777257
vt 0.849882 0.988772
vt 0.799084 0.565742
vt 0.806001 0.354227
vt 0.799084 0.354227
vt 0.806001 0.565742
vt 0.842965 0.354227
vt 0.966471 0.988772
vt 0.944001 0.354227
vt 0.863988 0.565742
vt 0.863988 0.777257
vt 0.322211 0.328308
vt 0.330155 0.236555
vt 0.330155 0.328308
vt 0.322211 0.236555
vt 0.776612 0.565742
vt 0.776612 0.354227
vt 0.346984 0.328308
vt 0.364182 0.236555
vt 0.364182 0.328308
vt 0.346984 0.236555
vt 0.987815 0.565742
vt 0.987815 0.354227
vt 0.346984 0.053048
vt 0.302344 0.020569
vt 0.322211 0.053048
vt 0.227499 0.988772
vt 0.512247 0.208474
vt 0.483487 0.328308
vt 0.154229 0.354227
vt 0.014059 0.053048
vt 0.048938 0.053048
vt 0.242563 0.988772
vt 0.302344 0.328308
vt 0.863988 0.354227
s 0
g off
g Road1_Curve2_Road1Material
usemtl Road1Material
f 8/1/1 3/2/1 10/3/1
f 70/4/2 2/5/2 67/6/2
f 67/7/3 9/8/3 76/9/3
f 41/10/4 11/11/4 9/12/4
f 37/13/4 7/14/4 41/15/4
f 7/16/5 80/17/5 72/18/5
f 9/19/4 40/20/4 2/21/4
f 76/22/3 41/23/3 74/24/3
f 6/11/1 10/10/1 5/12/1
f 18/25/4 15/26/4 50/27/4
f 78/28/6 15/29/6 46/30/6
f 50/27/4 11/11/4 7/31/4
f 4/32/7 77/33/7 69/34/7
f 15/3/4 40/20/4 11/35/4
f 8/1/1 13/21/1 4/36/1
f 6/11/1 12/27/1 8/31/1
f 86/37/6 18/38/6 17/39/6
f 50/40/5 84/41/5 80/17/5
f 12/42/8 85/43/8 81/44/8
f 16/26/1 20/25/1 12/27/1
f 97/45/9 24/46/9 23/47/9
f 21/48/4 26/49/4 28/50/4
f 91/51/10 32/52/10 101/53/10
f 27/54/1 32/27/1 14/31/1
f 1/55/1 6/56/1 5/14/1
f 27/54/1 1/10/1 25/57/1
f 24/58/1 25/59/1 23/60/1
f 28/10/4 35/11/4 37/12/4
f 24/58/1 31/61/1 27/62/1
f 32/52/10 89/63/10 101/53/10
f 22/64/4 30/65/4 26/49/4
f 30/27/4 35/11/4 26/31/4
f 59/25/4 58/66/4 30/27/4
f 31/66/1 34/25/1 32/27/1
f 104/67/11 59/68/11 106/69/11
f 90/70/6 59/68/6 60/71/6
f 95/72/12 36/73/12 87/74/12
f 104/75/6 36/73/6 30/76/6
f 100/77/3 21/78/3 98/79/3
f 94/80/3 28/81/3 100/82/3
f 6/83/6 91/84/6 71/85/6
f 93/86/3 5/87/3 73/88/3
f 110/4/13 38/5/13 107/6/13
f 107/7/3 44/8/3 116/9/3
f 45/11/14 42/10/14 44/12/14
f 43/14/14 62/13/14 42/15/14
f 43/16/15 120/17/15 112/18/15
f 39/20/14 44/19/14 38/21/14
f 116/22/3 42/23/3 114/24/3
f 48/26/14 52/25/14 49/27/14
f 118/28/6 48/29/6 47/30/6
f 45/11/14 49/27/14 43/31/14
f 40/32/16 117/33/16 109/34/16
f 39/20/14 48/3/14 45/35/14
f 126/37/6 52/38/6 51/39/6
f 49/40/15 124/41/15 120/17/15
f 15/42/17 125/43/17 121/44/17
f 136/89/18 21/47/18 137/45/18
f 55/49/14 53/48/14 56/50/14
f 131/51/19 58/52/19 141/53/19
f 61/11/14 56/10/14 62/12/14
f 58/52/19 129/63/19 141/53/19
f 55/49/14 63/90/14 54/64/14
f 61/11/14 57/27/14 55/31/14
f 57/27/14 65/91/14 66/25/14
f 144/67/20 66/68/20 146/69/20
f 130/70/6 66/68/6 65/71/6
f 135/72/21 63/73/21 127/74/21
f 144/75/6 63/73/6 57/76/6
f 140/77/3 53/78/3 138/79/3
f 134/80/3 56/81/3 140/82/3
f 7/83/6 131/84/6 111/85/6
f 133/86/3 41/87/3 113/88/3
f 37/92/3 74/93/3 41/94/3
f 94/95/3 73/88/3 74/93/3
f 72/96/6 35/97/6 7/98/6
f 71/85/6 92/99/6 72/96/6
f 1/100/3 99/101/3 25/102/3
f 93/103/3 100/82/3 99/101/3
f 25/104/3 97/105/3 23/106/3
f 99/107/3 98/79/3 97/105/3
f 31/108/6 88/109/6 103/110/6
f 103/110/6 87/74/6 104/75/6
f 24/46/9 88/109/9 29/111/9
f 96/89/22 87/74/22 88/109/22
f 34/112/6 105/113/6 89/63/6
f 89/63/6 106/69/6 90/70/6
f 103/114/23 33/115/23 31/116/23
f 103/114/24 106/69/24 105/113/24
f 58/117/25 90/70/25 60/71/25
f 102/118/26 89/63/26 90/70/26
f 35/119/25 102/118/25 58/117/25
f 91/51/26 102/118/26 92/120/26
f 22/121/12 98/122/12 21/123/12
f 95/72/22 97/45/22 98/122/22
f 82/124/27 17/39/27 15/125/27
f 81/44/28 86/37/28 82/124/28
f 79/126/29 19/127/29 16/128/29
f 80/17/30 83/129/30 79/126/30
f 20/130/6 83/129/6 85/43/6
f 85/43/6 84/41/6 86/37/6
f 70/4/2 46/30/2 40/131/2
f 69/34/31 78/28/31 70/4/31
f 13/132/6 81/133/6 77/33/6
f 77/33/6 82/134/6 78/28/6
f 10/135/3 73/136/3 5/137/3
f 75/138/3 74/24/3 73/136/3
f 71/139/29 16/128/29 6/140/29
f 72/18/30 79/126/30 71/139/30
f 3/141/3 75/142/3 10/143/3
f 68/144/3 76/9/3 75/142/3
f 4/32/7 68/145/7 3/146/7
f 69/34/31 67/6/31 68/145/31
f 62/92/3 114/93/3 42/94/3
f 134/95/3 113/88/3 114/93/3
f 112/96/6 61/97/6 43/98/6
f 111/85/6 132/99/6 112/96/6
f 37/100/3 139/101/3 28/102/3
f 133/103/3 140/82/3 139/101/3
f 28/104/3 137/105/3 21/106/3
f 139/107/3 138/79/3 137/105/3
f 30/108/6 128/109/6 143/110/6
f 143/110/6 127/74/6 144/75/6
f 22/46/18 128/109/18 36/111/18
f 136/89/32 127/74/32 128/109/32
f 60/112/6 145/113/6 129/63/6
f 129/63/6 146/69/6 130/70/6
f 143/114/33 59/115/33 30/116/33
f 144/67/34 145/113/34 143/114/34
f 142/118/35 65/71/35 64/117/35
f 141/53/36 130/70/36 142/118/36
f 132/120/35 64/117/35 61/119/35
f 131/51/36 142/118/36 132/120/36
f 54/121/21 138/122/21 53/123/21
f 135/72/32 137/45/32 138/122/32
f 122/124/37 51/39/37 48/125/37
f 121/44/38 126/37/38 122/124/38
f 119/126/39 18/127/39 50/128/39
f 120/17/40 123/129/40 119/126/40
f 17/130/6 123/129/6 125/43/6
f 125/43/6 124/41/6 126/37/6
f 110/4/13 47/30/13 39/131/13
f 109/34/41 118/28/41 110/4/41
f 46/132/6 121/133/6 117/33/6
f 117/33/6 122/134/6 118/28/6
f 9/135/3 113/136/3 41/137/3
f 115/138/3 114/24/3 113/136/3
f 111/139/39 50/128/39 7/140/39
f 112/18/40 119/126/40 111/139/40
f 2/141/3 115/142/3 9/143/3
f 108/144/3 116/9/3 115/142/3
f 40/32/16 108/145/16 2/146/16
f 109/34/41 107/6/41 108/145/41
f 8/1/1 4/36/1 3/2/1
f 70/4/2 40/131/2 2/5/2
f 67/7/3 2/147/3 9/8/3
f 41/10/4 7/31/4 11/11/4
f 37/13/4 35/148/4 7/14/4
f 7/16/5 50/40/5 80/17/5
f 9/19/4 11/35/4 40/20/4
f 76/22/3 9/149/3 41/23/3
f 6/11/1 8/31/1 10/10/1
f 18/25/4 17/91/4 15/26/4
f 78/28/6 82/134/6 15/29/6
f 50/27/4 15/26/4 11/11/4
f 4/32/7 13/132/7 77/33/7
f 15/3/4 46/2/4 40/20/4
f 8/1/1 12/19/1 13/21/1
f 6/11/1 16/26/1 12/27/1
f 86/37/6 84/41/6 18/38/6
f 50/40/5 18/38/5 84/41/5
f 12/42/8 20/130/8 85/43/8
f 16/26/1 19/91/1 20/25/1
f 97/45/9 96/89/9 24/46/9
f 21/48/4 22/64/4 26/49/4
f 91/51/10 14/150/10 32/52/10
f 27/54/1 31/66/1 32/27/1
f 1/55/1 14/13/1 6/56/1
f 27/54/1 14/31/1 1/10/1
f 24/58/1 27/62/1 25/59/1
f 28/10/4 26/31/4 35/11/4
f 24/58/1 29/151/1 31/61/1
f 32/52/10 34/112/10 89/63/10
f 22/64/4 36/90/4 30/65/4
f 30/27/4 58/66/4 35/11/4
f 59/25/4 60/91/4 58/66/4
f 31/66/1 33/152/1 34/25/1
f 104/67/11 30/153/11 59/68/11
f 90/70/6 106/69/6 59/68/6
f 95/72/12 22/121/12 36/73/12
f 104/75/6 87/74/6 36/73/6
f 100/77/3 28/154/3 21/78/3
f 94/80/3 37/155/3 28/81/3
f 6/83/6 14/156/6 91/84/6
f 93/86/3 1/157/3 5/87/3
f 110/4/13 39/131/13 38/5/13
f 107/7/3 38/147/3 44/8/3
f 45/11/14 43/31/14 42/10/14
f 43/14/14 61/148/14 62/13/14
f 43/16/15 49/40/15 120/17/15
f 39/20/14 45/35/14 44/19/14
f 116/22/3 44/149/3 42/23/3
f 48/26/14 51/91/14 52/25/14
f 118/28/6 122/134/6 48/29/6
f 45/11/14 48/26/14 49/27/14
f 40/32/16 46/132/16 117/33/16
f 39/20/14 47/2/14 48/3/14
f 126/37/6 124/41/6 52/38/6
f 49/40/15 52/38/15 124/41/15
f 15/42/17 17/130/17 125/43/17
f 136/89/18 22/46/18 21/47/18
f 55/49/14 54/64/14 53/48/14
f 131/51/19 35/150/19 58/52/19
f 61/11/14 55/31/14 56/10/14
f 58/52/19 60/112/19 129/63/19
f 55/49/14 57/65/14 63/90/14
f 61/11/14 64/66/14 57/27/14
f 57/27/14 64/66/14 65/91/14
f 144/67/20 57/153/20 66/68/20
f 130/70/6 146/69/6 66/68/6
f 135/72/21 54/121/21 63/73/21
f 144/75/6 127/74/6 63/73/6
f 140/77/3 56/154/3 53/78/3
f 134/80/3 62/155/3 56/81/3
f 7/83/6 35/156/6 131/84/6
f 133/86/3 37/157/3 41/87/3
f 37/92/3 94/95/3 74/93/3
f 94/95/3 93/86/3 73/88/3
f 72/96/6 92/99/6 35/97/6
f 71/85/6 91/84/6 92/99/6
f 1/100/3 93/103/3 99/101/3
f 93/103/3 94/80/3 100/82/3
f 25/104/3 99/107/3 97/105/3
f 99/107/3 100/77/3 98/79/3
f 31/108/6 29/111/6 88/109/6
f 103/110/6 88/109/6 87/74/6
f 24/46/9 96/89/9 88/109/9
f 96/89/22 95/72/22 87/74/22
f 34/112/6 33/115/6 105/113/6
f 89/63/6 105/113/6 106/69/6
f 103/114/23 105/113/23 33/115/23
f 103/114/24 104/67/24 106/69/24
f 58/117/25 102/118/25 90/70/25
f 102/118/26 101/53/26 89/63/26
f 35/119/25 92/120/25 102/118/25
f 91/51/26 101/53/26 102/118/26
f 22/121/12 95/72/12 98/122/12
f 95/72/22 96/89/22 97/45/22
f 82/124/27 86/37/27 17/39/27
f 81/44/28 85/43/28 86/37/28
f 79/126/29 83/129/29 19/127/29
f 80/17/30 84/41/30 83/129/30
f 20/130/6 19/127/6 83/129/6
f 85/43/6 83/129/6 84/41/6
f 70/4/2 78/28/2 46/30/2
f 69/34/31 77/33/31 78/28/31
f 13/132/6 12/158/6 81/133/6
f 77/33/6 81/133/6 82/134/6
f 10/135/3 75/138/3 73/136/3
f 75/138/3 76/22/3 74/24/3
f 71/139/29 79/126/29 16/128/29
f 72/18/30 80/17/30 79/126/30
f 3/141/3 68/144/3 75/142/3
f 68/144/3 67/7/3 76/9/3
f 4/32/7 69/34/7 68/145/7
f 69/34/31 70/4/31 67/6/31
f 62/92/3 134/95/3 114/93/3
f 134/95/3 133/86/3 113/88/3
f 112/96/6 132/99/6 61/97/6
f 111/85/6 131/84/6 132/99/6
f 37/100/3 133/103/3 139/101/3
f 133/103/3 134/80/3 140/82/3
f 28/104/3 139/107/3 137/105/3
f 139/107/3 140/77/3 138/79/3
f 30/108/6 36/111/6 128/109/6
f 143/110/6 128/109/6 127/74/6
f 22/46/18 136/89/18 128/109/18
f 136/89/32 135/72/32 127/74/32
f 60/112/6 59/115/6 145/113/6
f 129/63/6 145/113/6 146/69/6
f 143/114/33 145/113/33 59/115/33
f 144/67/34 146/69/34 145/113/34
f 142/118/35 130/70/35 65/71/35
f 141/53/36 129/63/36 130/70/36
f 132/120/35 142/118/35 64/117/35
f 131/51/36 141/53/36 142/118/36
f 54/121/21 135/72/21 138/122/21
f 135/72/32 136/89/32 137/45/32
f 122/124/37 126/37/37 51/39/37
f 121/44/38 125/43/38 126/37/38
f 119/126/39 123/129/39 18/127/39
f 120/17/40 124/41/40 123/129/40
f 17/130/6 18/127/6 123/129/6
f 125/43/6 123/129/6 124/41/6
f 110/4/13 118/28/13 47/30/13
f 109/34/41 117/33/41 118/28/41
f 46/132/6 15/158/6 121/133/6
f 117/33/6 121/133/6 122/134/6
f 9/135/3 115/138/3 113/136/3
f 115/138/3 116/22/3 114/24/3
f 111/139/39 119/126/39 50/128/39
f 112/18/40 120/17/40 119/126/40
f 2/141/3 108/144/3 115/142/3
f 108/144/3 107/7/3 116/9/3
f 40/32/16 109/34/16 108/145/16
f 109/34/41 110/4/41 107/6/41
