# Blender 4.5.3 LTS
# www.blender.org
mtllib Road2_T.mtl
g Road2_T_Mesh
v -4.903902 0.000004 -6.000000
v 5.999999 -0.000004 6.000000
v 5.999999 0.199996 6.000000
v 5.999999 0.000004 -6.000000
v 5.999999 0.200003 -6.000000
v 4.903921 0.000004 -6.000000
v 4.903921 0.200003 -6.000000
v 4.903921 -0.000004 6.000000
v 4.903921 0.199996 6.000000
v 5.250242 0.200003 -6.000000
v 5.250242 -0.000004 6.000000
v 5.250242 0.000004 -6.000000
v 5.250242 0.199996 6.000000
v 5.250242 0.410552 -6.000000
v 5.999999 0.410552 -6.000000
v 5.999999 0.410544 6.000000
v -4.903902 0.200003 -6.000000
v 5.250242 0.410544 6.000000
v 4.903921 0.410544 6.000000
v 4.903921 0.410552 -6.000000
v 4.903921 0.475352 -6.000000
v 5.250242 0.475352 -6.000000
v -6.000001 -0.000004 6.000000
v -6.000001 0.199996 6.000000
v -6.000001 0.000004 -6.000000
v -6.000001 0.200003 -6.000000
v -5.250224 0.000004 -6.000000
v -5.250224 0.199996 6.000000
v -5.250224 0.200003 -6.000000
v -5.250224 -0.000004 6.000000
v -6.000001 0.410552 -6.000000
v -5.250224 0.410544 6.000000
v -5.250224 0.410552 -6.000000
v -4.903902 0.410552 -6.000000
v -5.250224 0.475352 -6.000000
v -4.903902 0.475352 -6.000000
v -4.903903 0.199996 5.999998
v -4.903903 -0.000004 5.999998
v -6.000001 0.410544 5.999999
v 5.999999 -0.000003 5.250225
v 5.999999 0.199996 5.250225
v 4.903921 -0.000003 5.250225
v 5.250242 -0.000003 5.250225
v 5.999999 0.410545 5.250226
v 4.903921 0.410545 5.250226
v 5.250242 0.410545 5.250226
v 4.903921 0.475345 5.250226
v -6.000001 0.410545 5.250224
v -4.903903 0.475345 5.250224
v -4.903903 -0.000003 5.250223
v -6.000001 0.199996 5.250225
v -6.000001 -0.000003 5.250225
v -5.250224 -0.000003 5.250225
v -5.250224 0.410545 5.250226
v -5.250224 0.475345 5.250224
v 5.999999 -0.000003 4.903904
v -6.000001 0.410545 4.903903
v -6.000001 0.199996 4.903904
v 4.903921 -0.000003 4.903904
v 5.250242 -0.000003 4.903904
v 5.999999 0.410545 4.903904
v 4.903921 0.410545 4.903904
v 5.250242 0.475345 4.903904
v -4.903903 0.475345 4.903903
v -4.903903 -0.000003 4.903902
v -6.000001 -0.000003 4.903904
v -5.250224 -0.000003 4.903904
v -4.903902 0.410545 4.903903
v 5.999999 0.000003 -5.250244
v -6.000001 0.410552 -5.250244
v -6.000001 0.200003 -5.250244
v 5.999999 0.200003 -5.250244
v 4.903921 0.200003 -5.250244
v 4.903921 0.000003 -5.250244
v 5.250242 0.000003 -5.250244
v 5.999999 0.410552 -5.250244
v 4.903921 0.410552 -5.250244
v 5.250242 0.410552 -5.250244
v 4.903921 0.475352 -5.250244
v -4.903902 0.475352 -5.250244
v -4.903902 0.200003 -5.250244
v -4.903902 0.000003 -5.250244
v -6.000001 0.000003 -5.250244
v -5.250224 0.000003 -5.250244
v -4.903902 0.410552 -5.250244
v -5.250224 0.410552 -5.250244
v -5.250224 0.475352 -5.250244
v 4.903921 0.200003 -4.903922
v 4.903921 0.000003 -4.903922
v 5.250242 0.000003 -4.903922
v 5.999999 0.410551 -4.903921
v 4.903921 0.410551 -4.903921
v 4.903921 0.475352 -4.903921
v -4.903902 0.475352 -4.903921
v -4.903902 0.200003 -4.903922
v -4.903902 0.000003 -4.903922
v -6.000001 0.000003 -4.903922
v -5.250224 0.000003 -4.903922
v 5.999999 0.000003 -4.903922
v -6.000001 0.410551 -4.903921
v 5.999999 0.475345 4.903904
v 5.999999 0.475345 5.250226
v 5.250242 0.475345 5.250226
v 5.999999 0.200003 -4.903922
v 5.250242 0.410545 4.903904
v 5.999999 0.199996 4.903904
v 4.903921 0.199996 4.903904
v 5.250242 0.199996 4.903904
v 5.250242 0.410551 -4.903921
v 5.250242 0.200003 -4.903922
v 5.250242 0.475352 -5.250244
v 5.999999 0.475352 -5.250244
v 5.999999 0.475352 -4.903921
v 5.250242 0.475352 -4.903921
v -6.000001 0.200003 -4.903922
v -6.000001 0.475352 -4.903921
v -6.000001 0.475352 -5.250244
v -5.250224 0.475352 -4.903921
v -4.903902 0.410551 -4.903921
v -5.250224 0.410551 -4.903921
v -5.250224 0.200003 -4.903922
v -5.250224 0.475345 4.903904
v -6.000001 0.475345 5.250224
v -6.000001 0.475345 4.903903
v -5.250224 0.410545 4.903904
v -4.903903 0.199996 4.903902
v -5.250224 0.199996 4.903902
v -4.903903 0.410545 5.250224
v 4.903921 0.475345 4.903904
v -4.903903 0.410544 5.999999
vn -0.0000 -0.0000 -1.0000
vn 1.0000 -0.0000 -0.0000
vn -0.0000 -1.0000 -0.0000
vn -0.0000 -0.0000 1.0000
vn -0.0000 1.0000 -0.0000
vn -1.0000 -0.0000 -0.0000
vt 0.625288 0.285731
vt 0.668689 0.123030
vt 0.668689 0.285731
vt 0.579598 0.123030
vt 0.622998 0.285731
vt 0.579598 0.285731
vt 0.662470 0.176001
vt 0.590318 0.248155
vt 0.590318 0.176001
vt 0.637501 0.208329
vt 0.592026 0.182067
vt 0.637501 0.182067
vt 0.583228 0.270569
vt 0.666602 0.281901
vt 0.583228 0.281901
vt 0.622999 0.123030
vt 0.579598 0.123030
vt 0.644414 0.187221
vt 0.611086 0.259375
vt 0.611086 0.187221
vt 0.553791 0.250184
vt 0.508316 0.223922
vt 0.553791 0.223922
vt 0.587705 0.277438
vt 0.658936 0.123226
vt 0.658936 0.277439
vt 0.668687 0.123114
vt 0.579598 0.285730
vt 0.579598 0.123114
vt 0.592026 0.235976
vt 0.592026 0.208329
vt 0.622999 0.285731
vt 0.668689 0.123030
vt 0.668689 0.285731
vt 0.622999 0.285731
vt 0.625288 0.123030
vt 0.508316 0.277831
vt 0.508316 0.250184
vt 0.424476 0.187406
vt 0.424325 0.187406
vt 0.428927 0.187406
vt 0.424474 0.187407
vt 0.405410 0.187407
vt 0.428926 0.187407
vt 0.428926 0.238910
vt 0.424474 0.187406
vt 0.428926 0.187406
vt 0.553791 0.277831
vt 0.508316 0.286340
vt 0.625288 0.285731
vt 0.622998 0.123030
vt 0.579598 0.285731
vt 0.579598 0.123030
vt 0.424325 0.234987
vt 0.409861 0.286491
vt 0.409861 0.234987
vt 0.553791 0.250184
vt 0.302344 0.020569
vt 0.077368 0.031901
vt 0.077368 0.020569
vt 0.553791 0.223922
vt 0.622998 0.123030
vt 0.640602 0.216080
vt 0.595127 0.189818
vt 0.640602 0.189818
vt 0.668686 0.285731
vt 0.622998 0.285731
vt 0.405410 0.234987
vt 0.622998 0.285731
vt 0.595127 0.243727
vt 0.595127 0.216080
vt 0.553791 0.277831
vt 0.622998 0.285730
vt 0.668687 0.123030
vt 0.668687 0.285731
vt 0.668690 0.123114
vt 0.579598 0.285730
vt 0.579598 0.123114
vt 0.662470 0.194603
vt 0.590318 0.266755
vt 0.590318 0.194603
vt 0.600756 0.168250
vt 0.634083 0.240402
vt 0.600756 0.240402
vt 0.767654 0.991452
vt 0.235447 0.950768
vt 0.767654 0.950768
vt 0.302344 0.311110
vt 0.077368 0.328308
vt 0.077368 0.311110
vt 0.663540 0.223569
vt 0.590483 0.240768
vt 0.590483 0.223569
vt 0.504643 0.158176
vt 0.537971 0.191503
vt 0.504643 0.191503
vt 0.504350 0.158175
vt 0.432198 0.191503
vt 0.432198 0.158175
vt 0.508316 0.250184
vt 0.555847 0.183434
vt 0.508316 0.135901
vt 0.555848 0.135901
vt 0.622998 0.123030
vt 0.579598 0.123030
vt 0.658936 0.123226
vt 0.587705 0.277439
vt 0.587705 0.123226
vt 0.405410 0.286340
vt 0.452942 0.238807
vt 0.452942 0.286340
vt 0.668687 0.123030
vt 0.668687 0.285731
vt 0.537971 0.158175
vt 0.504643 0.191503
vt 0.504643 0.158175
vt 0.504350 0.158175
vt 0.432198 0.191503
vt 0.432198 0.158175
vt 0.077368 0.031901
vt 0.346984 0.303166
vt 0.364182 0.078190
vt 0.364182 0.303166
vt 0.428926 0.238911
vt 0.322211 0.303166
vt 0.330155 0.078190
vt 0.330155 0.303166
vt 0.014059 0.303166
vt 0.031258 0.078190
vt 0.031258 0.303166
vt 0.056882 0.303166
vt 0.048938 0.078190
vt 0.056882 0.078190
vt 0.536119 0.220354
vt 0.419417 0.228298
vt 0.419417 0.220354
vt 0.553791 0.250184
vt 0.508316 0.223922
vt 0.553791 0.223922
vt 0.537971 0.158175
vt 0.504643 0.230326
vt 0.504643 0.158175
vt 0.656694 0.158175
vt 0.584541 0.230326
vt 0.584541 0.158175
vt 0.668686 0.285730
vt 0.668686 0.123114
vt 0.625288 0.123030
vt 0.555845 0.183434
vt 0.452942 0.135901
vt 0.555845 0.135901
vt 0.428926 0.187405
vt 0.424474 0.135901
vt 0.428926 0.135901
vt 0.409861 0.187406
vt 0.405410 0.135901
vt 0.409861 0.135901
vt 0.555848 0.135901
vt 0.508315 0.238806
vt 0.508315 0.135901
vt 0.668691 0.285730
vt 0.579598 0.123114
vt 0.668691 0.123114
vt 0.504643 0.230327
vt 0.424325 0.187406
vt 0.424325 0.135901
vt 0.584541 0.263655
vt 0.656693 0.191503
vt 0.656693 0.263655
vt 0.302344 0.303166
vt 0.077368 0.303166
vt 0.235447 0.931975
vt 0.767654 0.931975
vt 0.405410 0.211197
vt 0.409861 0.211197
vt 0.424325 0.211197
vt 0.508316 0.260078
vt 0.553791 0.286340
vt 0.555846 0.238807
vt 0.555846 0.286340
vt 0.302344 0.031901
vt 0.077368 0.020569
vt 0.302344 0.020569
vt 0.216654 0.399768
vt 0.175969 0.931975
vt 0.175969 0.399768
vt 0.235447 0.399768
vt 0.767654 0.399768
vt 0.302344 0.078190
vt 0.077368 0.078190
vt 0.537971 0.230326
vt 0.504643 0.263653
vt 0.504350 0.230326
vt 0.432198 0.263653
vt 0.432198 0.230326
vt 0.553791 0.232431
vt 0.553791 0.260078
vt 0.452942 0.183434
vt 0.405410 0.135901
vt 0.405410 0.187407
vt 0.405410 0.211196
vt 0.405410 0.187406
vt 0.555848 0.238806
vt 0.508315 0.286340
vt 0.424474 0.135901
vt 0.428926 0.135901
vt 0.537971 0.230327
vt 0.504643 0.263655
vt 0.424325 0.211196
vt 0.432198 0.191503
vt 0.504350 0.158175
vt 0.504350 0.191503
vt 0.786447 0.931975
vt 0.786447 0.399768
vt 0.827132 0.931975
vt 0.424325 0.286491
vt 0.419873 0.234987
vt 0.424325 0.234987
vt 0.419873 0.211197
vt 0.424325 0.211197
vt 0.419873 0.286491
vt 0.405410 0.234987
vt 0.405410 0.211197
vt 0.409861 0.234987
vt 0.405410 0.234987
vt 0.409861 0.211196
vt 0.424325 0.234987
vt 0.424325 0.286491
vt 0.409861 0.286491
vt 0.405410 0.286340
vt 0.405410 0.238806
vt 0.452942 0.286340
vt 0.405410 0.183434
vt 0.428926 0.238910
vt 0.424474 0.187405
vt 0.409861 0.187407
vt 0.409861 0.135901
vt 0.424325 0.187407
vt 0.508316 0.183434
vt 0.553791 0.286340
vt 0.428927 0.238911
vt 0.424476 0.238911
vt 0.409861 0.286491
vt 0.405410 0.234986
vt 0.409861 0.234986
vt 0.405410 0.211196
vt 0.424325 0.211196
vt 0.424325 0.234986
vt 0.424324 0.286491
vt 0.404392 0.267932
vt 0.557694 0.267932
vt 0.404392 0.249139
vt 0.557694 0.249139
vt 0.599441 0.123164
vt 0.587643 0.277501
vt 0.587643 0.123164
vt 0.666602 0.270569
vt 0.622998 0.123030
vt 0.662470 0.248155
vt 0.644414 0.259375
vt 0.587705 0.123226
vt 0.668687 0.285730
vt 0.637501 0.235976
vt 0.622999 0.123030
vt 0.424474 0.238910
vt 0.302344 0.031901
vt 0.668686 0.123030
vt 0.405410 0.286491
vt 0.640602 0.243727
vt 0.553791 0.286340
vt 0.668690 0.285731
vt 0.662470 0.266755
vt 0.634083 0.168250
vt 0.235447 0.991452
vt 0.302344 0.328308
vt 0.663540 0.240768
vt 0.504350 0.191503
vt 0.658936 0.277439
vt 0.405410 0.238807
vt 0.537971 0.191503
vt 0.504350 0.191503
vt 0.302344 0.031901
vt 0.346984 0.078190
vt 0.424474 0.238911
vt 0.322211 0.078190
vt 0.014059 0.078190
vt 0.048938 0.303166
vt 0.536119 0.228298
vt 0.656694 0.230326
vt 0.579598 0.285730
vt 0.584541 0.191503
vt 0.216655 0.931975
vt 0.537971 0.263653
vt 0.504350 0.263653
vt 0.508316 0.232431
vt 0.555848 0.286340
vt 0.537971 0.263655
vt 0.432198 0.158175
vt 0.827132 0.399768
vt 0.405410 0.286491
vt 0.405410 0.286491
vt 0.405410 0.286340
vt 0.424474 0.238910
vt 0.424325 0.135901
vt 0.555848 0.286340
vt 0.405410 0.286491
vt 0.409861 0.211196
vt 0.599441 0.277501
s 0
g off
g Road2_T_Road2Material
usemtl Road2Material
f 10/1/1 4/2/1 12/3/1
f 40/4/2 3/5/2 2/6/2
f 40/7/3 11/8/3 43/9/3
f 13/10/4 8/11/4 11/12/4
f 9/13/4 38/14/4 8/15/4
f 3/16/4 11/6/4 2/17/4
f 43/18/3 8/19/3 42/20/3
f 7/21/1 12/22/1 6/23/1
f 54/24/5 130/25/5 128/26/5
f 46/27/5 16/28/5 44/29/5
f 13/10/4 19/30/4 9/31/4
f 72/32/2 15/33/2 76/34/2
f 3/16/4 18/3/4 13/35/4
f 10/1/1 15/17/1 5/36/1
f 7/21/1 14/37/1 10/38/1
f 54/39/4 49/40/4 55/41/4
f 103/42/4 45/43/4 46/44/4
f 14/45/2 111/46/2 78/47/2
f 20/48/1 22/49/1 14/37/1
f 71/50/6 25/33/6 83/34/6
f 28/51/4 23/52/4 30/53/4
f 81/54/2 34/55/2 85/56/2
f 29/57/1 34/37/1 17/38/1
f 1/58/1 7/59/1 6/60/1
f 29/57/1 1/22/1 27/61/1
f 26/62/1 27/6/1 25/4/1
f 37/63/4 30/64/4 38/65/4
f 26/62/1 33/66/1 29/67/1
f 34/55/2 80/68/2 85/56/2
f 28/51/4 39/66/4 24/69/4
f 37/63/4 32/70/4 28/71/4
f 33/72/1 36/49/1 34/37/1
f 51/73/6 39/74/6 48/75/6
f 54/76/5 39/77/5 32/78/5
f 53/79/3 23/80/3 52/81/3
f 53/82/3 38/83/3 30/84/3
f 7/85/5 81/86/5 73/87/5
f 82/88/3 6/89/3 74/90/3
f 38/91/3 42/92/3 8/93/3
f 67/94/3 50/95/3 53/96/3
f 67/97/3 52/98/3 66/99/3
f 58/100/6 48/48/6 57/37/6
f 122/101/5 49/102/5 64/103/5
f 24/104/6 52/28/6 23/105/6
f 45/106/5 18/107/5 46/108/5
f 129/109/5 103/110/5 63/111/5
f 3/5/2 44/112/2 16/113/2
f 60/114/3 42/115/3 59/116/3
f 56/117/3 43/118/3 60/119/3
f 56/23/2 41/38/2 40/22/2
f 104/120/2 56/58/2 99/60/2
f 99/121/3 60/122/3 90/123/3
f 44/124/4 103/42/4 46/44/4
f 90/125/3 59/126/3 89/127/3
f 61/48/2 102/49/2 44/37/2
f 98/128/3 66/129/3 97/130/3
f 98/131/3 65/132/3 67/133/3
f 50/134/3 59/135/3 42/136/3
f 51/137/6 66/138/6 52/139/6
f 41/38/2 61/48/2 44/37/2
f 1/140/3 84/141/3 27/142/3
f 27/143/3 83/144/3 25/145/3
f 31/146/5 86/78/5 33/147/5
f 71/50/6 31/4/6 26/148/6
f 35/149/5 80/150/5 36/151/5
f 86/152/6 35/153/6 33/154/6
f 77/155/6 21/156/6 20/157/6
f 21/158/5 111/159/5 22/160/5
f 14/161/5 76/162/5 15/163/5
f 12/114/3 74/164/3 6/116/3
f 73/165/6 20/157/6 7/166/6
f 4/167/3 75/168/3 12/169/3
f 4/4/2 72/32/2 69/6/2
f 96/170/3 74/90/3 89/171/3
f 73/87/5 95/172/5 88/173/5
f 85/56/2 94/174/2 119/175/2
f 95/176/2 85/56/2 119/175/2
f 115/177/6 83/178/6 97/49/6
f 104/38/2 76/72/2 91/37/2
f 63/111/5 102/179/5 101/180/5
f 58/181/6 97/182/6 66/183/6
f 127/184/5 115/185/5 58/186/5
f 95/172/5 127/184/5 126/187/5
f 88/173/5 126/187/5 107/188/5
f 65/189/3 89/171/3 59/190/3
f 82/191/3 98/192/3 84/141/3
f 84/193/3 97/194/3 83/195/3
f 70/196/6 116/22/6 117/139/6
f 115/177/6 70/196/6 71/197/6
f 87/198/5 94/199/5 80/150/5
f 118/200/4 119/175/4 94/174/4
f 77/155/6 93/201/6 79/202/6
f 79/203/5 114/204/5 111/159/5
f 78/47/1 112/205/1 76/206/1
f 75/207/3 89/208/3 74/164/3
f 88/209/6 77/155/6 73/165/6
f 69/210/3 90/211/3 75/212/3
f 69/61/2 104/38/2 99/22/2
f 107/188/5 110/213/5 88/173/5
f 108/214/5 104/215/5 110/213/5
f 101/216/1 105/217/1 63/218/1
f 63/218/1 62/219/1 129/220/1
f 61/221/1 108/222/1 105/217/1
f 105/217/1 107/223/1 62/219/1
f 93/201/4 109/224/4 114/225/4
f 92/226/4 110/227/4 109/224/4
f 109/224/4 104/228/4 91/229/4
f 111/159/5 113/230/5 112/231/5
f 76/72/2 113/49/2 91/37/2
f 91/229/4 114/225/4 109/224/4
f 117/232/5 118/233/5 87/198/5
f 70/234/1 87/235/1 86/152/1
f 120/236/4 116/199/4 100/237/4
f 100/237/4 121/238/4 120/236/4
f 120/236/4 95/176/4 119/175/4
f 122/101/5 123/49/5 55/239/5
f 57/37/6 123/240/6 124/49/6
f 54/39/4 123/241/4 48/242/4
f 57/243/1 122/244/1 125/245/1
f 64/246/1 125/245/1 122/244/1
f 125/245/1 126/247/1 127/248/1
f 125/245/1 58/249/1 57/243/1
f 68/250/1 129/251/1 62/251/1
f 126/250/1 62/251/1 107/251/1
f 129/251/5 49/252/5 47/253/5
f 45/253/4 49/252/4 128/252/4
f 45/254/5 130/255/5 19/256/5
f 9/13/4 130/257/4 37/257/4
f 10/1/1 5/36/1 4/2/1
f 40/4/2 41/258/2 3/5/2
f 40/7/3 2/259/3 11/8/3
f 13/10/4 9/31/4 8/11/4
f 9/13/4 37/257/4 38/14/4
f 3/16/4 13/35/4 11/6/4
f 43/18/3 11/260/3 8/19/3
f 7/21/1 10/38/1 12/22/1
f 54/24/5 32/261/5 130/25/5
f 46/27/5 18/262/5 16/28/5
f 13/10/4 18/263/4 19/30/4
f 72/32/2 5/264/2 15/33/2
f 3/16/4 16/2/4 18/3/4
f 10/1/1 14/6/1 15/17/1
f 7/21/1 20/48/1 14/37/1
f 54/39/4 128/40/4 49/40/4
f 103/42/4 47/43/4 45/43/4
f 14/45/2 22/265/2 111/46/2
f 20/48/1 21/240/1 22/49/1
f 71/50/6 26/148/6 25/33/6
f 28/51/4 24/69/4 23/52/4
f 81/54/2 17/216/2 34/55/2
f 29/57/1 33/72/1 34/37/1
f 1/58/1 17/266/1 7/59/1
f 29/57/1 17/38/1 1/22/1
f 26/62/1 29/67/1 27/6/1
f 37/63/4 28/71/4 30/64/4
f 26/62/1 31/267/1 33/66/1
f 34/55/2 36/268/2 80/68/2
f 28/51/4 32/267/4 39/66/4
f 37/63/4 130/269/4 32/70/4
f 33/72/1 35/270/1 36/49/1
f 51/73/6 24/104/6 39/74/6
f 54/76/5 48/271/5 39/77/5
f 53/79/3 30/272/3 23/80/3
f 53/82/3 50/273/3 38/83/3
f 7/85/5 17/274/5 81/86/5
f 82/88/3 1/275/3 6/89/3
f 38/91/3 50/276/3 42/92/3
f 67/94/3 65/140/3 50/95/3
f 67/97/3 53/277/3 52/98/3
f 58/100/6 51/137/6 48/48/6
f 122/101/5 55/239/5 49/102/5
f 24/104/6 51/73/6 52/28/6
f 45/106/5 19/278/5 18/107/5
f 129/109/5 47/279/5 103/110/5
f 3/5/2 41/258/2 44/112/2
f 60/114/3 43/280/3 42/115/3
f 56/117/3 40/281/3 43/118/3
f 56/23/2 106/21/2 41/38/2
f 104/120/2 106/282/2 56/58/2
f 99/121/3 56/283/3 60/122/3
f 44/124/4 102/284/4 103/42/4
f 90/125/3 60/285/3 59/126/3
f 61/48/2 101/240/2 102/49/2
f 98/128/3 67/286/3 66/129/3
f 98/131/3 96/287/3 65/132/3
f 50/134/3 65/288/3 59/135/3
f 51/137/6 58/100/6 66/138/6
f 41/38/2 106/21/2 61/48/2
f 1/140/3 82/191/3 84/141/3
f 27/143/3 84/289/3 83/144/3
f 31/146/5 70/290/5 86/78/5
f 71/50/6 70/6/6 31/4/6
f 35/149/5 87/198/5 80/150/5
f 86/152/6 87/235/6 35/153/6
f 77/155/6 79/202/6 21/156/6
f 21/158/5 79/203/5 111/159/5
f 14/161/5 78/28/5 76/162/5
f 12/114/3 75/207/3 74/164/3
f 73/165/6 77/155/6 20/157/6
f 4/167/3 69/291/3 75/168/3
f 4/4/2 5/264/2 72/32/2
f 96/170/3 82/88/3 74/90/3
f 73/87/5 81/86/5 95/172/5
f 85/56/2 80/68/2 94/174/2
f 95/176/2 81/54/2 85/56/2
f 115/177/6 71/197/6 83/178/6
f 104/38/2 72/57/2 76/72/2
f 63/111/5 103/110/5 102/179/5
f 58/181/6 115/120/6 97/182/6
f 127/184/5 121/292/5 115/185/5
f 95/172/5 121/292/5 127/184/5
f 88/173/5 95/172/5 126/187/5
f 65/189/3 96/170/3 89/171/3
f 82/191/3 96/293/3 98/192/3
f 84/193/3 98/294/3 97/194/3
f 70/196/6 100/295/6 116/22/6
f 115/177/6 100/295/6 70/196/6
f 87/198/5 118/233/5 94/199/5
f 118/200/4 120/236/4 119/175/4
f 77/155/6 92/226/6 93/201/6
f 79/203/5 93/296/5 114/204/5
f 78/47/1 111/46/1 112/205/1
f 75/207/3 90/297/3 89/208/3
f 88/209/6 92/226/6 77/155/6
f 69/210/3 99/298/3 90/211/3
f 69/61/2 72/57/2 104/38/2
f 107/188/5 108/214/5 110/213/5
f 108/214/5 106/299/5 104/215/5
f 101/216/1 61/221/1 105/217/1
f 63/218/1 105/217/1 62/219/1
f 61/221/1 106/300/1 108/222/1
f 105/217/1 108/222/1 107/223/1
f 93/201/4 92/226/4 109/224/4
f 92/226/4 88/209/4 110/227/4
f 109/224/4 110/227/4 104/228/4
f 111/159/5 114/204/5 113/230/5
f 76/72/2 112/270/2 113/49/2
f 91/229/4 113/301/4 114/225/4
f 117/232/5 116/302/5 118/233/5
f 70/234/1 117/303/1 87/235/1
f 120/236/4 118/200/4 116/199/4
f 100/237/4 115/304/4 121/238/4
f 120/236/4 121/238/4 95/176/4
f 122/101/5 124/305/5 123/49/5
f 57/37/6 48/48/6 123/240/6
f 54/39/4 55/41/4 123/241/4
f 57/243/1 124/306/1 122/244/1
f 64/246/1 68/307/1 125/245/1
f 125/245/1 68/307/1 126/247/1
f 125/245/1 127/248/1 58/249/1
f 68/250/1 64/250/1 129/251/1
f 126/250/1 68/250/1 62/251/1
f 129/251/5 64/250/5 49/252/5
f 45/253/4 47/253/4 49/252/4
f 45/254/5 128/308/5 130/255/5
f 9/13/4 19/13/4 130/257/4
